<svg viewBox="0 0 500 27.5" xmlns="http://www.w3.org/2000/svg"><path d="m0 0h500v27.5h-500z" fill="#666"/><path d="m310 27.5v-27.5" fill="none" stroke="#e6e6e6" stroke-miterlimit="10" stroke-width=".75"/><path d="m405 27.5v-27.5" fill="none" stroke="#e6e6e6" stroke-miterlimit="10" stroke-width=".75"/><g fill="#e6e6e6"><path d="m323.61 11.22a3.21 3.21 0 0 1 1.1.18 2.25 2.25 0 0 1 .85.5 2.09 2.09 0 0 1 .55.78 2.37 2.37 0 0 1 .2 1 2.56 2.56 0 0 1 -.14.89 3.51 3.51 0 0 1 -.38.78 5.28 5.28 0 0 1 -.55.72l-.67.71-1.95 2 .56-.12a2.44 2.44 0 0 1 .53-.05h2.22a.52.52 0 0 1 .38.14.43.43 0 0 1 .15.35v.9h-6v-.5a.87.87 0 0 1 .07-.31.83.83 0 0 1 .2-.3l2.63-2.64c.22-.23.42-.44.59-.65a3.82 3.82 0 0 0 .44-.6 2.53 2.53 0 0 0 .27-.61 2.32 2.32 0 0 0 .09-.65 1.55 1.55 0 0 0 -.09-.55 1 1 0 0 0 -.65-.64 1.46 1.46 0 0 0 -.52-.08 1.38 1.38 0 0 0 -.88.27 1.4 1.4 0 0 0 -.48.72.66.66 0 0 1 -.2.33.53.53 0 0 1 -.34.1h-.2l-.78-.14a3.25 3.25 0 0 1 .35-1.09 2.53 2.53 0 0 1 .65-.79 2.45 2.45 0 0 1 .89-.47 3.38 3.38 0 0 1 1.11-.18z"/><path d="m334 15.65a7.12 7.12 0 0 1 -.24 2 4.19 4.19 0 0 1 -.67 1.39 2.82 2.82 0 0 1 -1 .81 3.07 3.07 0 0 1 -2.52 0 2.68 2.68 0 0 1 -1-.81 4 4 0 0 1 -.67-1.39 7.12 7.12 0 0 1 -.24-2 7.12 7.12 0 0 1 .24-2 3.86 3.86 0 0 1 .67-1.38 2.5 2.5 0 0 1 1-.81 3.07 3.07 0 0 1 2.52 0 2.62 2.62 0 0 1 1 .81 4 4 0 0 1 .67 1.38 7.12 7.12 0 0 1 .24 2zm-1.53 0a7.43 7.43 0 0 0 -.14-1.56 2.91 2.91 0 0 0 -.37-1 1.22 1.22 0 0 0 -.53-.51 1.36 1.36 0 0 0 -1.24 0 1.21 1.21 0 0 0 -.52.51 3.15 3.15 0 0 0 -.36 1 7.43 7.43 0 0 0 -.14 1.56 7.43 7.43 0 0 0 .14 1.56 3.32 3.32 0 0 0 .36 1 1.33 1.33 0 0 0 .52.51 1.36 1.36 0 0 0 1.24 0 1.35 1.35 0 0 0 .53-.51 3.06 3.06 0 0 0 .37-1 7.43 7.43 0 0 0 .12-1.56z"/><path d="m338.12 11.22a3.21 3.21 0 0 1 1.1.18 2.25 2.25 0 0 1 .85.5 2.09 2.09 0 0 1 .55.78 2.37 2.37 0 0 1 .2 1 2.56 2.56 0 0 1 -.14.89 3.51 3.51 0 0 1 -.38.78 5.28 5.28 0 0 1 -.55.72l-.67.71-1.95 2 .56-.12a2.44 2.44 0 0 1 .53-.05h2.22a.56.56 0 0 1 .39.14.45.45 0 0 1 .14.35v.9h-6v-.5a.87.87 0 0 1 .07-.31.83.83 0 0 1 .2-.3l2.63-2.64c.22-.23.42-.44.59-.65a3.82 3.82 0 0 0 .44-.6 2.53 2.53 0 0 0 .27-.61 2.32 2.32 0 0 0 .09-.65 1.55 1.55 0 0 0 -.09-.55 1 1 0 0 0 -.65-.64 1.46 1.46 0 0 0 -.52-.08 1.38 1.38 0 0 0 -.88.27 1.4 1.4 0 0 0 -.48.72.66.66 0 0 1 -.2.33.53.53 0 0 1 -.34.1h-.2l-.78-.14a3.25 3.25 0 0 1 .35-1.09 2.53 2.53 0 0 1 .65-.79 2.58 2.58 0 0 1 .88-.47 3.49 3.49 0 0 1 1.12-.18z"/><path d="m348.49 15.65a7.12 7.12 0 0 1 -.24 2 4.39 4.39 0 0 1 -.67 1.39 2.82 2.82 0 0 1 -1 .81 3.08 3.08 0 0 1 -2.52 0 2.68 2.68 0 0 1 -1-.81 4 4 0 0 1 -.67-1.39 7.12 7.12 0 0 1 -.24-2 7.12 7.12 0 0 1 .24-2 3.86 3.86 0 0 1 .61-1.35 2.5 2.5 0 0 1 1-.81 3.07 3.07 0 0 1 2.52 0 2.62 2.62 0 0 1 1 .81 4.23 4.23 0 0 1 .67 1.38 7.12 7.12 0 0 1 .3 1.97zm-1.53 0a7.43 7.43 0 0 0 -.14-1.56 2.91 2.91 0 0 0 -.37-1 1.22 1.22 0 0 0 -.53-.51 1.36 1.36 0 0 0 -1.24 0 1.21 1.21 0 0 0 -.52.51 3.14 3.14 0 0 0 -.37 1 8.27 8.27 0 0 0 -.13 1.56 8.27 8.27 0 0 0 .13 1.56 3.31 3.31 0 0 0 .37 1 1.33 1.33 0 0 0 .52.51 1.36 1.36 0 0 0 1.24 0 1.35 1.35 0 0 0 .53-.51 3.06 3.06 0 0 0 .37-1 7.43 7.43 0 0 0 .18-1.56z"/><path d="m418.61 11.22a3.21 3.21 0 0 1 1.1.18 2.25 2.25 0 0 1 .85.5 2.09 2.09 0 0 1 .55.78 2.37 2.37 0 0 1 .2 1 2.56 2.56 0 0 1 -.14.89 3.51 3.51 0 0 1 -.38.78 5.28 5.28 0 0 1 -.55.72l-.67.71-1.95 2 .56-.12a2.44 2.44 0 0 1 .53-.05h2.22a.52.52 0 0 1 .38.14.43.43 0 0 1 .15.35v.9h-6v-.5a.87.87 0 0 1 .07-.31.83.83 0 0 1 .2-.3l2.63-2.64c.22-.23.42-.44.59-.65a3.82 3.82 0 0 0 .44-.6 2.53 2.53 0 0 0 .27-.61 2.32 2.32 0 0 0 .09-.65 1.55 1.55 0 0 0 -.09-.55 1 1 0 0 0 -.65-.64 1.46 1.46 0 0 0 -.52-.08 1.38 1.38 0 0 0 -.88.27 1.4 1.4 0 0 0 -.48.72.66.66 0 0 1 -.2.33.53.53 0 0 1 -.34.1h-.2l-.78-.14a3.25 3.25 0 0 1 .35-1.09 2.53 2.53 0 0 1 .65-.79 2.45 2.45 0 0 1 .89-.47 3.38 3.38 0 0 1 1.11-.18z"/><path d="m429 15.65a7.12 7.12 0 0 1 -.24 2 4.19 4.19 0 0 1 -.67 1.39 2.82 2.82 0 0 1 -1 .81 3.07 3.07 0 0 1 -2.52 0 2.68 2.68 0 0 1 -1-.81 4 4 0 0 1 -.67-1.39 7.12 7.12 0 0 1 -.24-2 7.12 7.12 0 0 1 .24-2 3.86 3.86 0 0 1 .67-1.38 2.5 2.5 0 0 1 1-.81 3.07 3.07 0 0 1 2.52 0 2.62 2.62 0 0 1 1 .81 4 4 0 0 1 .67 1.38 7.12 7.12 0 0 1 .24 2zm-1.53 0a7.43 7.43 0 0 0 -.14-1.56 2.91 2.91 0 0 0 -.37-1 1.22 1.22 0 0 0 -.53-.51 1.36 1.36 0 0 0 -1.24 0 1.21 1.21 0 0 0 -.52.51 3.15 3.15 0 0 0 -.36 1 7.43 7.43 0 0 0 -.14 1.56 7.43 7.43 0 0 0 .14 1.56 3.32 3.32 0 0 0 .36 1 1.33 1.33 0 0 0 .52.51 1.36 1.36 0 0 0 1.24 0 1.35 1.35 0 0 0 .53-.51 3.06 3.06 0 0 0 .37-1 7.43 7.43 0 0 0 .12-1.56z"/><path d="m433.12 11.22a3.21 3.21 0 0 1 1.1.18 2.25 2.25 0 0 1 .85.5 2.09 2.09 0 0 1 .55.78 2.37 2.37 0 0 1 .2 1 2.56 2.56 0 0 1 -.14.89 3.51 3.51 0 0 1 -.38.78 5.28 5.28 0 0 1 -.55.72l-.67.71-1.95 2 .56-.12a2.44 2.44 0 0 1 .53-.05h2.22a.56.56 0 0 1 .39.14.45.45 0 0 1 .14.35v.9h-6v-.5a.87.87 0 0 1 .07-.31.83.83 0 0 1 .2-.3l2.63-2.64c.22-.23.42-.44.59-.65a3.82 3.82 0 0 0 .44-.6 2.53 2.53 0 0 0 .27-.61 2.32 2.32 0 0 0 .09-.65 1.55 1.55 0 0 0 -.09-.55 1 1 0 0 0 -.65-.64 1.46 1.46 0 0 0 -.52-.08 1.38 1.38 0 0 0 -.88.27 1.4 1.4 0 0 0 -.48.72.66.66 0 0 1 -.2.33.53.53 0 0 1 -.34.1h-.2l-.78-.14a3.25 3.25 0 0 1 .35-1.09 2.53 2.53 0 0 1 .65-.79 2.58 2.58 0 0 1 .88-.47 3.49 3.49 0 0 1 1.12-.18z"/><path d="m438.14 18.88h1.76v-5.06c0-.19 0-.4 0-.62l-1.25 1.05a.51.51 0 0 1 -.16.09h-.16a.42.42 0 0 1 -.22 0 .33.33 0 0 1 -.14-.12l-.47-.64 2.65-2.25h1.21v7.58h1.56v1.09h-4.8z"/></g><path d="m215 27.5v-27.5" fill="none" stroke="#e6e6e6" stroke-miterlimit="10" stroke-width=".75"/><path d="m228.61 11.22a3.21 3.21 0 0 1 1.1.18 2.25 2.25 0 0 1 .85.5 2.09 2.09 0 0 1 .55.78 2.37 2.37 0 0 1 .2 1 2.56 2.56 0 0 1 -.14.89 3.51 3.51 0 0 1 -.38.78 5.28 5.28 0 0 1 -.55.72l-.67.71-1.95 2 .56-.12a2.44 2.44 0 0 1 .53-.05h2.22a.52.52 0 0 1 .38.14.43.43 0 0 1 .15.35v.9h-6v-.5a.7.7 0 0 1 .07-.31.83.83 0 0 1 .2-.3l2.63-2.64c.22-.23.42-.44.59-.65a3.82 3.82 0 0 0 .44-.6 2.53 2.53 0 0 0 .27-.61 2.32 2.32 0 0 0 .09-.65 1.55 1.55 0 0 0 -.09-.55 1 1 0 0 0 -.65-.64 1.46 1.46 0 0 0 -.52-.08 1.38 1.38 0 0 0 -.88.27 1.4 1.4 0 0 0 -.48.72.66.66 0 0 1 -.2.33.53.53 0 0 1 -.34.1h-.2l-.78-.14a3.25 3.25 0 0 1 .35-1.09 2.53 2.53 0 0 1 .65-.79 2.45 2.45 0 0 1 .89-.47 3.38 3.38 0 0 1 1.11-.18z" fill="#e6e6e6"/><path d="m239 15.65a7.12 7.12 0 0 1 -.24 2 4.2 4.2 0 0 1 -.68 1.39 2.71 2.71 0 0 1 -1 .81 3.08 3.08 0 0 1 -2.52 0 2.68 2.68 0 0 1 -1-.81 4 4 0 0 1 -.67-1.39 7.12 7.12 0 0 1 -.24-2 7.12 7.12 0 0 1 .24-2 3.86 3.86 0 0 1 .67-1.38 2.5 2.5 0 0 1 1-.81 3.08 3.08 0 0 1 2.52 0 2.53 2.53 0 0 1 1 .81 4 4 0 0 1 .68 1.38 7.12 7.12 0 0 1 .24 2zm-1.53 0a7.43 7.43 0 0 0 -.14-1.56 2.91 2.91 0 0 0 -.37-1 1.22 1.22 0 0 0 -.53-.51 1.36 1.36 0 0 0 -1.24 0 1.21 1.21 0 0 0 -.52.51 3.41 3.41 0 0 0 -.37 1 7.51 7.51 0 0 0 -.13 1.56 7.51 7.51 0 0 0 .13 1.56 3.61 3.61 0 0 0 .37 1 1.33 1.33 0 0 0 .52.51 1.36 1.36 0 0 0 1.24 0 1.35 1.35 0 0 0 .53-.51 3.06 3.06 0 0 0 .37-1 7.43 7.43 0 0 0 .12-1.56z" fill="#e6e6e6"/><path d="m241 18.88h1.76v-5.06c0-.19 0-.4 0-.62l-1.25 1.05a.51.51 0 0 1 -.16.09h-.16a.42.42 0 0 1 -.22 0 .33.33 0 0 1 -.14-.12l-.47-.64 2.64-2.28h1.21v7.58h1.56v1.12h-4.77z" fill="#e6e6e6"/><path d="m249.38 16.53a2.44 2.44 0 0 1 -.88-.16 2.11 2.11 0 0 1 -.77-.47 2.34 2.34 0 0 1 -.55-.78 2.79 2.79 0 0 1 -.18-1.12 2.66 2.66 0 0 1 .22-1.09 2.59 2.59 0 0 1 .6-.89 2.78 2.78 0 0 1 .94-.61 3.09 3.09 0 0 1 1.2-.22 3.21 3.21 0 0 1 1.2.21 2.51 2.51 0 0 1 1.48 1.49 3.11 3.11 0 0 1 .2 1.16 3.7 3.7 0 0 1 -.07.76 4.26 4.26 0 0 1 -.19.7 5.38 5.38 0 0 1 -.31.64c-.12.21-.26.42-.4.64l-2 2.83a.82.82 0 0 1 -.3.24 1 1 0 0 1 -.46.1h-1.36l2.69-3.37.19-.24.18-.24a2.45 2.45 0 0 1 -.66.29 2.73 2.73 0 0 1 -.77.13zm2-2.6a1.54 1.54 0 0 0 -.11-.63 1.19 1.19 0 0 0 -.3-.47 1.35 1.35 0 0 0 -.47-.3 1.68 1.68 0 0 0 -.6-.1 1.7 1.7 0 0 0 -.61.11 1.31 1.31 0 0 0 -.75.78 1.89 1.89 0 0 0 -.1.6 1.54 1.54 0 0 0 .38 1.11 1.43 1.43 0 0 0 1.06.38 1.62 1.62 0 0 0 .64-.12 1.29 1.29 0 0 0 .48-.29 1.2 1.2 0 0 0 .29-.47 1.57 1.57 0 0 0 .11-.6z" fill="#e6e6e6"/><path d="m120 27.5v-27.5" fill="none" stroke="#e6e6e6" stroke-miterlimit="10" stroke-width=".75"/><path d="m133.61 11.22a3.21 3.21 0 0 1 1.1.18 2.25 2.25 0 0 1 .85.5 2.09 2.09 0 0 1 .55.78 2.37 2.37 0 0 1 .2 1 2.56 2.56 0 0 1 -.14.89 3.51 3.51 0 0 1 -.38.78 5.28 5.28 0 0 1 -.55.72l-.67.71-1.95 2 .56-.12a2.44 2.44 0 0 1 .53-.05h2.22a.52.52 0 0 1 .38.14.43.43 0 0 1 .15.35v.9h-6v-.5a.7.7 0 0 1 .07-.31.83.83 0 0 1 .2-.3l2.63-2.64c.22-.23.42-.44.59-.65a3.82 3.82 0 0 0 .44-.6 2.53 2.53 0 0 0 .27-.61 2.32 2.32 0 0 0 .09-.65 1.55 1.55 0 0 0 -.09-.55 1 1 0 0 0 -.65-.64 1.46 1.46 0 0 0 -.52-.08 1.38 1.38 0 0 0 -.88.27 1.4 1.4 0 0 0 -.48.72.66.66 0 0 1 -.2.33.53.53 0 0 1 -.34.1h-.2l-.78-.14a3.25 3.25 0 0 1 .35-1.09 2.53 2.53 0 0 1 .65-.79 2.45 2.45 0 0 1 .89-.47 3.38 3.38 0 0 1 1.11-.18z" fill="#e6e6e6"/><path d="m144 15.65a7.12 7.12 0 0 1 -.24 2 4.2 4.2 0 0 1 -.68 1.39 2.71 2.71 0 0 1 -1 .81 3.07 3.07 0 0 1 -2.52 0 2.68 2.68 0 0 1 -1-.81 4 4 0 0 1 -.67-1.39 7.12 7.12 0 0 1 -.24-2 7.12 7.12 0 0 1 .24-2 3.86 3.86 0 0 1 .67-1.38 2.5 2.5 0 0 1 1-.81 3.07 3.07 0 0 1 2.52 0 2.53 2.53 0 0 1 1 .81 4 4 0 0 1 .68 1.38 7.12 7.12 0 0 1 .24 2zm-1.53 0a7.43 7.43 0 0 0 -.14-1.56 2.91 2.91 0 0 0 -.37-1 1.22 1.22 0 0 0 -.53-.51 1.36 1.36 0 0 0 -1.24 0 1.21 1.21 0 0 0 -.52.51 3.41 3.41 0 0 0 -.37 1 7.51 7.51 0 0 0 -.13 1.56 7.51 7.51 0 0 0 .13 1.56 3.61 3.61 0 0 0 .37 1 1.33 1.33 0 0 0 .52.51 1.36 1.36 0 0 0 1.24 0 1.35 1.35 0 0 0 .53-.51 3.06 3.06 0 0 0 .37-1 7.43 7.43 0 0 0 .12-1.56z" fill="#e6e6e6"/><path d="m146 18.88h1.76v-5.06c0-.19 0-.4 0-.62l-1.25 1.05a.51.51 0 0 1 -.16.09h-.16a.42.42 0 0 1 -.22 0 .33.33 0 0 1 -.14-.12l-.47-.64 2.64-2.28h1.21v7.58h1.56v1.12h-4.77z" fill="#e6e6e6"/><path d="m154.89 20.09a4 4 0 0 1 -1.23-.18 2.89 2.89 0 0 1 -.95-.51 2.28 2.28 0 0 1 -.61-.8 2.38 2.38 0 0 1 -.22-1.05 2.15 2.15 0 0 1 .38-1.3 2.21 2.21 0 0 1 1.17-.78 2.08 2.08 0 0 1 -1-.75 2.13 2.13 0 0 1 -.31-1.17 2 2 0 0 1 .2-.92 2.14 2.14 0 0 1 .56-.74 2.51 2.51 0 0 1 .86-.49 3.45 3.45 0 0 1 2.2 0 2.42 2.42 0 0 1 .86.49 2.14 2.14 0 0 1 .56.74 2 2 0 0 1 .2.92 1.91 1.91 0 0 1 -1.26 1.92 2.21 2.21 0 0 1 1.17.78 2.15 2.15 0 0 1 .38 1.3 2.38 2.38 0 0 1 -.22 1.05 2.28 2.28 0 0 1 -.61.8 2.89 2.89 0 0 1 -.95.51 4 4 0 0 1 -1.18.18zm0-1.16a1.79 1.79 0 0 0 .64-.11 1.25 1.25 0 0 0 .47-.29 1.18 1.18 0 0 0 .28-.44 1.47 1.47 0 0 0 .1-.56 1.37 1.37 0 0 0 -.4-1.08 1.79 1.79 0 0 0 -2.18 0 1.37 1.37 0 0 0 -.4 1.08 1.47 1.47 0 0 0 .1.56 1.18 1.18 0 0 0 .28.44 1.25 1.25 0 0 0 .47.29 1.79 1.79 0 0 0 .64.11zm0-4a1.58 1.58 0 0 0 .61-.11 1.1 1.1 0 0 0 .39-.31 1.08 1.08 0 0 0 .21-.43 1.68 1.68 0 0 0 .07-.5 1.5 1.5 0 0 0 -.08-.47 1.09 1.09 0 0 0 -.23-.39 1.13 1.13 0 0 0 -.4-.27 1.53 1.53 0 0 0 -1.14 0 1.13 1.13 0 0 0 -.4.27 1 1 0 0 0 -.23.39 1.5 1.5 0 0 0 -.08.47 1.68 1.68 0 0 0 .07.5 1.08 1.08 0 0 0 .21.43 1.1 1.1 0 0 0 .39.31 1.58 1.58 0 0 0 .61.1z" fill="#e6e6e6"/></svg>