<?xml version="1.0" encoding="utf-8"?>
<!-- Generator: Adobe Illustrator 25.2.0, SVG Export Plug-In . SVG Version: 6.00 Build 0)  -->
<svg version="1.1" id="Layer_1" xmlns="http://www.w3.org/2000/svg" xmlns:xlink="http://www.w3.org/1999/xlink" x="0px" y="0px"
	 viewBox="0 0 500 27.5" style="enable-background:new 0 0 500 27.5;" xml:space="preserve">
<style type="text/css">
	.st0{fill:#2E2E2E;}
	.st1{fill:none;stroke:#E6E6E6;stroke-width:0.75;stroke-miterlimit:10;}
	.st2{fill:#E6E6E6;}
</style>
<path class="st0" d="M0,0h500v27.5H0V0z"/>
<path class="st1" d="M310,27.5V0"/>
<path class="st1" d="M405,27.5V0"/>
<g>
	<path class="st2" d="M323.6,11.2c0.4,0,0.7,0.1,1.1,0.2c0.3,0.1,0.6,0.3,0.9,0.5c0.2,0.2,0.4,0.5,0.5,0.8c0.1,0.3,0.2,0.7,0.2,1
		c0,0.3,0,0.6-0.1,0.9c-0.1,0.3-0.2,0.5-0.4,0.8c-0.2,0.3-0.3,0.5-0.5,0.7l-0.7,0.7l-2,2l0.6-0.1c0.2,0,0.4-0.1,0.5,0h2.2
		c0.1,0,0.3,0,0.4,0.1c0.1,0.1,0.2,0.2,0.1,0.4V20h-6v-0.5c0-0.1,0-0.2,0.1-0.3c0-0.1,0.1-0.2,0.2-0.3l2.6-2.6
		c0.2-0.2,0.4-0.4,0.6-0.6c0.2-0.2,0.3-0.4,0.4-0.6c0.1-0.2,0.2-0.4,0.3-0.6c0.1-0.2,0.1-0.4,0.1-0.6c0-0.2,0-0.4-0.1-0.6
		c-0.1-0.3-0.3-0.5-0.6-0.6c-0.2-0.1-0.3-0.1-0.5-0.1c-0.3,0-0.6,0.1-0.9,0.3c-0.2,0.2-0.4,0.4-0.5,0.7c0,0.1-0.1,0.2-0.2,0.3
		c-0.1,0.1-0.2,0.1-0.3,0.1h-0.2l-0.8-0.1c0.1-0.4,0.2-0.8,0.4-1.1c0.2-0.3,0.4-0.6,0.6-0.8c0.3-0.2,0.6-0.4,0.9-0.5
		C322.9,11.3,323.2,11.2,323.6,11.2L323.6,11.2z"/>
	<path class="st2" d="M334,15.6c0,0.7-0.1,1.3-0.2,2c-0.1,0.5-0.4,1-0.7,1.4c-0.3,0.3-0.6,0.6-1,0.8c-0.8,0.4-1.7,0.4-2.5,0
		c-0.4-0.2-0.7-0.5-1-0.8c-0.3-0.4-0.5-0.9-0.7-1.4c-0.2-0.7-0.3-1.3-0.2-2c0-0.7,0.1-1.3,0.2-2c0.1-0.5,0.4-1,0.7-1.4
		c0.3-0.4,0.6-0.6,1-0.8c0.8-0.4,1.7-0.4,2.5,0c0.4,0.2,0.7,0.5,1,0.8c0.3,0.4,0.5,0.9,0.7,1.4C333.9,14.3,334,15,334,15.6z
		 M332.5,15.6c0-0.5,0-1-0.1-1.6c-0.1-0.4-0.2-0.7-0.4-1c-0.1-0.2-0.3-0.4-0.5-0.5c-0.4-0.2-0.9-0.2-1.2,0c-0.2,0.1-0.4,0.3-0.5,0.5
		c-0.2,0.3-0.3,0.6-0.4,1c-0.1,0.5-0.1,1-0.1,1.6c0,0.5,0,1,0.1,1.6c0.1,0.4,0.2,0.7,0.4,1c0.1,0.2,0.3,0.4,0.5,0.5
		c0.4,0.2,0.9,0.2,1.2,0c0.2-0.1,0.4-0.3,0.5-0.5c0.2-0.3,0.3-0.6,0.4-1C332.4,16.7,332.5,16.2,332.5,15.6L332.5,15.6z"/>
	<path class="st2" d="M338.1,11.2c0.4,0,0.7,0.1,1.1,0.2c0.3,0.1,0.6,0.3,0.9,0.5c0.2,0.2,0.4,0.5,0.5,0.8c0.1,0.3,0.2,0.7,0.2,1
		c0,0.3,0,0.6-0.1,0.9c-0.1,0.3-0.2,0.5-0.4,0.8c-0.2,0.3-0.3,0.5-0.5,0.7l-0.7,0.7l-2,2l0.6-0.1c0.2,0,0.4-0.1,0.5,0h2.2
		c0.1,0,0.3,0,0.4,0.1c0.1,0.1,0.1,0.2,0.1,0.4V20h-6v-0.5c0-0.1,0-0.2,0.1-0.3c0-0.1,0.1-0.2,0.2-0.3l2.6-2.6
		c0.2-0.2,0.4-0.4,0.6-0.6c0.2-0.2,0.3-0.4,0.4-0.6c0.1-0.2,0.2-0.4,0.3-0.6c0.1-0.2,0.1-0.4,0.1-0.6c0-0.2,0-0.4-0.1-0.6
		c-0.1-0.3-0.3-0.5-0.6-0.6c-0.2-0.1-0.3-0.1-0.5-0.1c-0.3,0-0.6,0.1-0.9,0.3c-0.2,0.2-0.4,0.4-0.5,0.7c0,0.1-0.1,0.2-0.2,0.3
		c-0.1,0.1-0.2,0.1-0.3,0.1h-0.2l-0.8-0.1c0.1-0.4,0.2-0.8,0.4-1.1c0.2-0.3,0.4-0.6,0.6-0.8c0.3-0.2,0.6-0.4,0.9-0.5
		C337.4,11.3,337.7,11.2,338.1,11.2z"/>
	<path class="st2" d="M348.5,15.6c0,0.7-0.1,1.3-0.2,2c-0.1,0.5-0.4,1-0.7,1.4c-0.3,0.3-0.6,0.6-1,0.8c-0.8,0.4-1.7,0.4-2.5,0
		c-0.4-0.2-0.7-0.5-1-0.8c-0.3-0.4-0.5-0.9-0.7-1.4c-0.2-0.7-0.3-1.3-0.2-2c0-0.7,0.1-1.3,0.2-2c0.1-0.5,0.3-0.9,0.6-1.4
		c0.3-0.4,0.6-0.6,1-0.8c0.8-0.4,1.7-0.4,2.5,0c0.4,0.2,0.7,0.5,1,0.8c0.3,0.4,0.5,0.9,0.7,1.4C348.4,14.3,348.5,15,348.5,15.6
		L348.5,15.6z M347,15.6c0-0.5,0-1-0.1-1.6c-0.1-0.4-0.2-0.7-0.4-1c-0.1-0.2-0.3-0.4-0.5-0.5c-0.4-0.2-0.9-0.2-1.2,0
		c-0.2,0.1-0.4,0.3-0.5,0.5c-0.2,0.3-0.3,0.6-0.4,1c-0.1,0.5-0.1,1-0.1,1.6c0,0.5,0,1,0.1,1.6c0.1,0.4,0.2,0.7,0.4,1
		c0.1,0.2,0.3,0.4,0.5,0.5c0.4,0.2,0.9,0.2,1.2,0c0.2-0.1,0.4-0.3,0.5-0.5c0.2-0.3,0.3-0.6,0.4-1C346.9,16.7,347,16.2,347,15.6
		L347,15.6z"/>
	<path class="st2" d="M418.6,11.2c0.4,0,0.7,0.1,1.1,0.2c0.3,0.1,0.6,0.3,0.9,0.5c0.2,0.2,0.4,0.5,0.5,0.8c0.1,0.3,0.2,0.7,0.2,1
		c0,0.3,0,0.6-0.1,0.9c-0.1,0.3-0.2,0.5-0.4,0.8c-0.2,0.3-0.3,0.5-0.5,0.7l-0.7,0.7l-2,2l0.6-0.1c0.2,0,0.4-0.1,0.5,0h2.2
		c0.1,0,0.3,0,0.4,0.1c0.1,0.1,0.2,0.2,0.1,0.4V20h-6v-0.5c0-0.1,0-0.2,0.1-0.3c0-0.1,0.1-0.2,0.2-0.3l2.6-2.6
		c0.2-0.2,0.4-0.4,0.6-0.6c0.2-0.2,0.3-0.4,0.4-0.6c0.1-0.2,0.2-0.4,0.3-0.6c0.1-0.2,0.1-0.4,0.1-0.6c0-0.2,0-0.4-0.1-0.6
		c-0.1-0.3-0.3-0.5-0.6-0.6c-0.2-0.1-0.3-0.1-0.5-0.1c-0.3,0-0.6,0.1-0.9,0.3c-0.2,0.2-0.4,0.4-0.5,0.7c0,0.1-0.1,0.2-0.2,0.3
		c-0.1,0.1-0.2,0.1-0.3,0.1h-0.2l-0.8-0.1c0.1-0.4,0.2-0.8,0.4-1.1c0.2-0.3,0.4-0.6,0.6-0.8c0.3-0.2,0.6-0.4,0.9-0.5
		C417.9,11.3,418.2,11.2,418.6,11.2L418.6,11.2z"/>
	<path class="st2" d="M429,15.6c0,0.7-0.1,1.3-0.2,2c-0.1,0.5-0.4,1-0.7,1.4c-0.3,0.3-0.6,0.6-1,0.8c-0.8,0.4-1.7,0.4-2.5,0
		c-0.4-0.2-0.7-0.5-1-0.8c-0.3-0.4-0.5-0.9-0.7-1.4c-0.2-0.7-0.3-1.3-0.2-2c0-0.7,0.1-1.3,0.2-2c0.1-0.5,0.4-1,0.7-1.4
		c0.3-0.4,0.6-0.6,1-0.8c0.8-0.4,1.7-0.4,2.5,0c0.4,0.2,0.7,0.5,1,0.8c0.3,0.4,0.5,0.9,0.7,1.4C428.9,14.3,429,15,429,15.6z
		 M427.5,15.6c0-0.5,0-1-0.1-1.6c-0.1-0.4-0.2-0.7-0.4-1c-0.1-0.2-0.3-0.4-0.5-0.5c-0.4-0.2-0.9-0.2-1.2,0c-0.2,0.1-0.4,0.3-0.5,0.5
		c-0.2,0.3-0.3,0.6-0.4,1c-0.1,0.5-0.1,1-0.1,1.6c0,0.5,0,1,0.1,1.6c0.1,0.4,0.2,0.7,0.4,1c0.1,0.2,0.3,0.4,0.5,0.5
		c0.4,0.2,0.9,0.2,1.2,0c0.2-0.1,0.4-0.3,0.5-0.5c0.2-0.3,0.3-0.6,0.4-1C427.4,16.7,427.5,16.2,427.5,15.6L427.5,15.6z"/>
	<path class="st2" d="M433.1,11.2c0.4,0,0.7,0.1,1.1,0.2c0.3,0.1,0.6,0.3,0.9,0.5c0.2,0.2,0.4,0.5,0.5,0.8c0.1,0.3,0.2,0.7,0.2,1
		c0,0.3,0,0.6-0.1,0.9c-0.1,0.3-0.2,0.5-0.4,0.8c-0.2,0.3-0.3,0.5-0.5,0.7l-0.7,0.7l-2,2l0.6-0.1c0.2,0,0.4-0.1,0.5,0h2.2
		c0.1,0,0.3,0,0.4,0.1c0.1,0.1,0.1,0.2,0.1,0.4V20h-6v-0.5c0-0.1,0-0.2,0.1-0.3c0-0.1,0.1-0.2,0.2-0.3l2.6-2.6
		c0.2-0.2,0.4-0.4,0.6-0.6c0.2-0.2,0.3-0.4,0.4-0.6c0.1-0.2,0.2-0.4,0.3-0.6c0.1-0.2,0.1-0.4,0.1-0.6c0-0.2,0-0.4-0.1-0.6
		c-0.1-0.3-0.3-0.5-0.6-0.6c-0.2-0.1-0.3-0.1-0.5-0.1c-0.3,0-0.6,0.1-0.9,0.3c-0.2,0.2-0.4,0.4-0.5,0.7c0,0.1-0.1,0.2-0.2,0.3
		c-0.1,0.1-0.2,0.1-0.3,0.1h-0.2l-0.8-0.1c0.1-0.4,0.2-0.8,0.4-1.1c0.2-0.3,0.4-0.6,0.6-0.8c0.3-0.2,0.6-0.4,0.9-0.5
		C432.4,11.3,432.7,11.2,433.1,11.2z"/>
	<path class="st2" d="M438.1,18.9h1.8v-5.1c0-0.2,0-0.4,0-0.6l-1.2,1.1c0,0-0.1,0.1-0.2,0.1h-0.2c-0.1,0-0.1,0-0.2,0
		c-0.1,0-0.1-0.1-0.1-0.1l-0.5-0.6l2.6-2.2h1.2v7.6h1.6V20h-4.8L438.1,18.9z"/>
</g>
<path class="st1" d="M215,27.5V0"/>
<path class="st2" d="M228.6,11.2c0.4,0,0.7,0.1,1.1,0.2c0.3,0.1,0.6,0.3,0.9,0.5c0.2,0.2,0.4,0.5,0.6,0.8c0.1,0.3,0.2,0.7,0.2,1
	c0,0.3,0,0.6-0.1,0.9c-0.1,0.3-0.2,0.5-0.4,0.8c-0.2,0.3-0.3,0.5-0.6,0.7l-0.7,0.7l-1.9,2l0.6-0.1c0.2,0,0.4-0.1,0.5,0h2.2
	c0.1,0,0.3,0,0.4,0.1c0.1,0.1,0.2,0.2,0.1,0.4V20h-6v-0.5c0-0.1,0-0.2,0.1-0.3c0-0.1,0.1-0.2,0.2-0.3l2.6-2.6
	c0.2-0.2,0.4-0.4,0.6-0.6c0.2-0.2,0.3-0.4,0.4-0.6c0.1-0.2,0.2-0.4,0.3-0.6c0.1-0.2,0.1-0.4,0.1-0.6c0-0.2,0-0.4-0.1-0.6
	c-0.1-0.3-0.3-0.5-0.6-0.6c-0.2-0.1-0.3-0.1-0.5-0.1c-0.3,0-0.6,0.1-0.9,0.3c-0.2,0.2-0.4,0.4-0.5,0.7c0,0.1-0.1,0.2-0.2,0.3
	c-0.1,0.1-0.2,0.1-0.3,0.1h-0.2l-0.8-0.1c0.1-0.4,0.2-0.8,0.4-1.1c0.2-0.3,0.4-0.6,0.6-0.8c0.3-0.2,0.6-0.4,0.9-0.5
	C227.9,11.3,228.2,11.2,228.6,11.2L228.6,11.2z"/>
<path class="st2" d="M239,15.6c0,0.7-0.1,1.3-0.2,2c-0.1,0.5-0.4,1-0.7,1.4c-0.3,0.3-0.6,0.6-1,0.8c-0.8,0.4-1.7,0.4-2.5,0
	c-0.4-0.2-0.7-0.5-1-0.8c-0.3-0.4-0.5-0.9-0.7-1.4c-0.2-0.7-0.3-1.3-0.2-2c0-0.7,0.1-1.3,0.2-2c0.1-0.5,0.4-1,0.7-1.4
	c0.3-0.4,0.6-0.6,1-0.8c0.8-0.4,1.7-0.4,2.5,0c0.4,0.2,0.7,0.5,1,0.8c0.3,0.4,0.5,0.9,0.7,1.4C238.9,14.3,239,15,239,15.6z
	 M237.5,15.6c0-0.5,0-1-0.1-1.6c-0.1-0.4-0.2-0.7-0.4-1c-0.1-0.2-0.3-0.4-0.5-0.5c-0.4-0.2-0.9-0.2-1.2,0c-0.2,0.1-0.4,0.3-0.5,0.5
	c-0.2,0.3-0.3,0.6-0.4,1c-0.1,0.5-0.1,1-0.1,1.6c0,0.5,0,1,0.1,1.6c0.1,0.3,0.2,0.7,0.4,1c0.1,0.2,0.3,0.4,0.5,0.5
	c0.4,0.2,0.9,0.2,1.2,0c0.2-0.1,0.4-0.3,0.5-0.5c0.2-0.3,0.3-0.6,0.4-1C237.4,16.7,237.5,16.2,237.5,15.6L237.5,15.6z"/>
<path class="st2" d="M241,18.9h1.8v-5.1c0-0.2,0-0.4,0-0.6l-1.2,1.1c0,0-0.1,0.1-0.2,0.1h-0.2c-0.1,0-0.1,0-0.2,0
	c-0.1,0-0.1-0.1-0.1-0.1l-0.5-0.6l2.6-2.3h1.2v7.6h1.6V20H241L241,18.9z"/>
<path class="st2" d="M249.4,16.5c-0.3,0-0.6-0.1-0.9-0.2c-0.3-0.1-0.6-0.3-0.8-0.5c-0.2-0.2-0.4-0.5-0.6-0.8
	c-0.1-0.4-0.2-0.7-0.2-1.1c0-0.4,0.1-0.7,0.2-1.1c0.1-0.3,0.3-0.6,0.6-0.9c0.3-0.3,0.6-0.5,0.9-0.6c0.4-0.2,0.8-0.2,1.2-0.2
	c0.4,0,0.8,0.1,1.2,0.2c0.7,0.3,1.2,0.8,1.5,1.5c0.1,0.4,0.2,0.8,0.2,1.2c0,0.3,0,0.5-0.1,0.8c0,0.2-0.1,0.5-0.2,0.7
	c-0.1,0.2-0.2,0.4-0.3,0.6c-0.1,0.2-0.3,0.4-0.4,0.6l-2,2.8c-0.1,0.1-0.2,0.2-0.3,0.2c-0.1,0.1-0.3,0.1-0.5,0.1h-1.4l2.7-3.4
	l0.2-0.2l0.2-0.2c-0.2,0.1-0.4,0.2-0.7,0.3C249.9,16.5,249.6,16.5,249.4,16.5L249.4,16.5z M251.4,13.9c0-0.2,0-0.4-0.1-0.6
	c-0.1-0.2-0.2-0.3-0.3-0.5c-0.1-0.1-0.3-0.2-0.5-0.3c-0.2-0.1-0.4-0.1-0.6-0.1c-0.2,0-0.4,0-0.6,0.1c-0.4,0.1-0.6,0.4-0.8,0.8
	c-0.1,0.2-0.1,0.4-0.1,0.6c0,0.4,0.1,0.8,0.4,1.1c0.3,0.3,0.7,0.4,1.1,0.4c0.2,0,0.4,0,0.6-0.1c0.2-0.1,0.3-0.2,0.5-0.3
	c0.1-0.1,0.2-0.3,0.3-0.5C251.4,14.3,251.4,14.1,251.4,13.9L251.4,13.9z"/>
<path class="st1" d="M120,27.5V0"/>
<path class="st2" d="M133.6,11.2c0.4,0,0.7,0.1,1.1,0.2c0.3,0.1,0.6,0.3,0.9,0.5c0.2,0.2,0.4,0.5,0.6,0.8c0.1,0.3,0.2,0.7,0.2,1
	c0,0.3,0,0.6-0.1,0.9c-0.1,0.3-0.2,0.5-0.4,0.8c-0.2,0.3-0.3,0.5-0.6,0.7l-0.7,0.7l-1.9,2l0.6-0.1c0.2,0,0.4-0.1,0.5,0h2.2
	c0.1,0,0.3,0,0.4,0.1c0.1,0.1,0.2,0.2,0.1,0.4V20h-6v-0.5c0-0.1,0-0.2,0.1-0.3c0-0.1,0.1-0.2,0.2-0.3l2.6-2.6
	c0.2-0.2,0.4-0.4,0.6-0.6c0.2-0.2,0.3-0.4,0.4-0.6c0.1-0.2,0.2-0.4,0.3-0.6c0.1-0.2,0.1-0.4,0.1-0.6c0-0.2,0-0.4-0.1-0.6
	c-0.1-0.3-0.3-0.5-0.6-0.6c-0.2-0.1-0.3-0.1-0.5-0.1c-0.3,0-0.6,0.1-0.9,0.3c-0.2,0.2-0.4,0.4-0.5,0.7c0,0.1-0.1,0.2-0.2,0.3
	c-0.1,0.1-0.2,0.1-0.3,0.1h-0.2l-0.8-0.1c0.1-0.4,0.2-0.8,0.4-1.1c0.2-0.3,0.4-0.6,0.6-0.8c0.3-0.2,0.6-0.4,0.9-0.5
	C132.9,11.3,133.2,11.2,133.6,11.2L133.6,11.2z"/>
<path class="st2" d="M144,15.6c0,0.7-0.1,1.3-0.2,2c-0.1,0.5-0.4,1-0.7,1.4c-0.3,0.3-0.6,0.6-1,0.8c-0.8,0.4-1.7,0.4-2.5,0
	c-0.4-0.2-0.7-0.5-1-0.8c-0.3-0.4-0.5-0.9-0.7-1.4c-0.2-0.7-0.3-1.3-0.2-2c0-0.7,0.1-1.3,0.2-2c0.1-0.5,0.4-1,0.7-1.4
	c0.3-0.4,0.6-0.6,1-0.8c0.8-0.4,1.7-0.4,2.5,0c0.4,0.2,0.7,0.5,1,0.8c0.3,0.4,0.5,0.9,0.7,1.4C143.9,14.3,144,15,144,15.6z
	 M142.5,15.6c0-0.5,0-1-0.1-1.6c-0.1-0.4-0.2-0.7-0.4-1c-0.1-0.2-0.3-0.4-0.5-0.5c-0.4-0.2-0.9-0.2-1.2,0c-0.2,0.1-0.4,0.3-0.5,0.5
	c-0.2,0.3-0.3,0.6-0.4,1c-0.1,0.5-0.1,1-0.1,1.6c0,0.5,0,1,0.1,1.6c0.1,0.3,0.2,0.7,0.4,1c0.1,0.2,0.3,0.4,0.5,0.5
	c0.4,0.2,0.9,0.2,1.2,0c0.2-0.1,0.4-0.3,0.5-0.5c0.2-0.3,0.3-0.6,0.4-1C142.4,16.7,142.5,16.2,142.5,15.6L142.5,15.6z"/>
<path class="st2" d="M146,18.9h1.8v-5.1c0-0.2,0-0.4,0-0.6l-1.2,1.1c0,0-0.1,0.1-0.2,0.1h-0.2c-0.1,0-0.1,0-0.2,0
	c-0.1,0-0.1-0.1-0.1-0.1l-0.5-0.6l2.6-2.3h1.2v7.6h1.6V20H146L146,18.9z"/>
<path class="st2" d="M154.9,20.1c-0.4,0-0.8-0.1-1.2-0.2c-0.3-0.1-0.7-0.3-0.9-0.5c-0.3-0.2-0.5-0.5-0.6-0.8c-0.2-0.3-0.2-0.7-0.2-1
	c0-0.5,0.1-0.9,0.4-1.3c0.3-0.4,0.7-0.7,1.2-0.8c-0.4-0.1-0.8-0.4-1-0.8c-0.2-0.4-0.3-0.8-0.3-1.2c0-0.3,0.1-0.6,0.2-0.9
	c0.1-0.3,0.3-0.5,0.6-0.7c0.3-0.2,0.5-0.4,0.9-0.5c0.7-0.2,1.5-0.2,2.2,0c0.3,0.1,0.6,0.3,0.9,0.5c0.2,0.2,0.4,0.5,0.6,0.7
	c0.1,0.3,0.2,0.6,0.2,0.9c0.1,0.8-0.5,1.6-1.3,1.9c0.5,0.1,0.9,0.4,1.2,0.8c0.3,0.4,0.4,0.8,0.4,1.3c0,0.4-0.1,0.7-0.2,1
	c-0.1,0.3-0.3,0.6-0.6,0.8c-0.3,0.2-0.6,0.4-0.9,0.5C155.7,20,155.3,20.1,154.9,20.1L154.9,20.1z M154.9,18.9c0.2,0,0.4,0,0.6-0.1
	c0.2-0.1,0.3-0.2,0.5-0.3c0.1-0.1,0.2-0.3,0.3-0.4c0.1-0.2,0.1-0.4,0.1-0.6c0-0.4-0.1-0.8-0.4-1.1c-0.6-0.5-1.5-0.5-2.2,0
	c-0.3,0.3-0.4,0.7-0.4,1.1c0,0.2,0,0.4,0.1,0.6c0.1,0.2,0.2,0.3,0.3,0.4c0.1,0.1,0.3,0.2,0.5,0.3C154.5,18.9,154.7,18.9,154.9,18.9
	L154.9,18.9z M154.9,14.9c0.2,0,0.4,0,0.6-0.1c0.2-0.1,0.3-0.2,0.4-0.3c0.1-0.1,0.2-0.3,0.2-0.4c0-0.2,0.1-0.3,0.1-0.5
	c0-0.2,0-0.3-0.1-0.5c0-0.1-0.1-0.3-0.2-0.4c-0.1-0.1-0.2-0.2-0.4-0.3c-0.4-0.1-0.8-0.1-1.1,0c-0.2,0.1-0.3,0.2-0.4,0.3
	c-0.1,0.1-0.2,0.2-0.2,0.4c-0.1,0.2-0.1,0.3-0.1,0.5c0,0.2,0,0.3,0.1,0.5c0,0.2,0.1,0.3,0.2,0.4c0.1,0.1,0.2,0.2,0.4,0.3
	C154.5,14.9,154.7,14.9,154.9,14.9L154.9,14.9z"/>
</svg>
