<svg id="Layer_1" data-name="Layer 1" xmlns="http://www.w3.org/2000/svg" viewBox="0 0 413 82.5"><defs><style>.cls-1{fill:#f0f0f0;}.cls-2{fill:#09bbec;}.cls-3{fill:#006814;}.cls-4{fill:#f24333;}.cls-5{fill:#591e4c;}.cls-6{fill:#f7b614;}.cls-7{fill:#748689;}</style></defs><path class="cls-1" d="M0,0H413V82.5H0Z"/><path d="M26.05,34.19v6.45h-.87V37.7H21.7v2.93h-.87V34.18h.87v2.88h3.48V34.18h.87Z"/><path d="M31.54,40a1.55,1.55,0,0,1-.36.31,2.58,2.58,0,0,1-.44.22,2.52,2.52,0,0,1-.49.13,2.81,2.81,0,0,1-.5,0,2.28,2.28,0,0,1-.87-.16,1.84,1.84,0,0,1-.69-.47,2.29,2.29,0,0,1-.45-.76,3,3,0,0,1-.16-1,2.6,2.6,0,0,1,.15-.89,2.14,2.14,0,0,1,.42-.72,2,2,0,0,1,.67-.48,2.28,2.28,0,0,1,1.65,0,1.62,1.62,0,0,1,.6.4,1.88,1.88,0,0,1,.4.64,2.34,2.34,0,0,1,.14.87.47.47,0,0,1,0,.25.18.18,0,0,1-.15.06H28.37a2.68,2.68,0,0,0,.12.75,1.58,1.58,0,0,0,.29.53,1.2,1.2,0,0,0,.45.32,1.54,1.54,0,0,0,.58.11,1.6,1.6,0,0,0,.52-.07l.38-.15a1.5,1.5,0,0,0,.26-.15.32.32,0,0,1,.18-.07.16.16,0,0,1,.15.08Zm-.65-2.14a1.6,1.6,0,0,0-.08-.51,1.13,1.13,0,0,0-.23-.4,1,1,0,0,0-.37-.26,1.3,1.3,0,0,0-.49-.09,1.21,1.21,0,0,0-.91.34,1.61,1.61,0,0,0-.42.93h2.5Z"/><path d="M32.82,36.72a2.61,2.61,0,0,1,.81-.54,2.54,2.54,0,0,1,1-.18,1.65,1.65,0,0,1,.68.13,1.37,1.37,0,0,1,.5.35,1.44,1.44,0,0,1,.31.54,2.24,2.24,0,0,1,.1.7v2.92h-.36a.3.3,0,0,1-.18,0,.28.28,0,0,1-.1-.15L35.46,40a4.11,4.11,0,0,1-.35.29,2.16,2.16,0,0,1-.36.22,2.7,2.7,0,0,1-.4.14,2.26,2.26,0,0,1-.47,0,1.63,1.63,0,0,1-.5-.07,1.16,1.16,0,0,1-.41-.22,1,1,0,0,1-.28-.38,1.27,1.27,0,0,1-.1-.54,1,1,0,0,1,.15-.52,1.29,1.29,0,0,1,.48-.44,3.32,3.32,0,0,1,.87-.32,6.65,6.65,0,0,1,1.31-.14v-.36a1.23,1.23,0,0,0-.23-.8.83.83,0,0,0-.67-.27,1.47,1.47,0,0,0-.5.07,2.28,2.28,0,0,0-.35.17l-.25.17a.35.35,0,0,1-.21.07.23.23,0,0,1-.14,0A.36.36,0,0,1,33,37Zm2.59,1.86a5.88,5.88,0,0,0-.94.09,3,3,0,0,0-.63.18,1,1,0,0,0-.36.27.6.6,0,0,0-.11.34.75.75,0,0,0,.06.31.49.49,0,0,0,.16.21.55.55,0,0,0,.24.12.92.92,0,0,0,.29,0,1.51,1.51,0,0,0,.72-.16,2.49,2.49,0,0,0,.3-.19,2.21,2.21,0,0,0,.28-.26v-1Z"/><path d="M38.55,34v6.63h-.8V34Z"/><path d="M41.54,40.71a1.1,1.1,0,0,1-.83-.3,1.22,1.22,0,0,1-.29-.87V36.75h-.55a.16.16,0,0,1-.12,0,.17.17,0,0,1,0-.13v-.32l.75-.09.18-1.41a.24.24,0,0,1,.06-.11.16.16,0,0,1,.12,0h.41v1.57h1.32v.58H41.22V39.5a.62.62,0,0,0,.14.43.49.49,0,0,0,.36.14.73.73,0,0,0,.22,0L42.1,40l.12-.07.08,0a.14.14,0,0,1,.11.08l.23.38a1.39,1.39,0,0,1-.5.3A3.09,3.09,0,0,1,41.54,40.71Z"/><path d="M44.53,36.69a2.18,2.18,0,0,1,.65-.49A1.8,1.8,0,0,1,46,36a1.69,1.69,0,0,1,.66.12,1.3,1.3,0,0,1,.48.35,1.52,1.52,0,0,1,.29.55,2.26,2.26,0,0,1,.1.71v2.9h-.81v-2.9a1.19,1.19,0,0,0-.24-.8.89.89,0,0,0-.72-.29,1.35,1.35,0,0,0-.66.17,2.06,2.06,0,0,0-.57.46v3.36h-.81V34h.81Z"/><path d="M52.25,36.89l-.07.08a.15.15,0,0,1-.1,0,.26.26,0,0,1-.15-.06,1.17,1.17,0,0,0-.2-.12,1.58,1.58,0,0,0-.29-.12,1.65,1.65,0,0,0-.43-.06,1.38,1.38,0,0,0-.59.12,1.18,1.18,0,0,0-.43.34,1.51,1.51,0,0,0-.26.54,2.63,2.63,0,0,0-.09.72,2.78,2.78,0,0,0,.09.74,1.52,1.52,0,0,0,.27.54,1,1,0,0,0,.42.33,1.23,1.23,0,0,0,.55.11,1.26,1.26,0,0,0,.79-.23l.21-.16a.25.25,0,0,1,.16-.07.16.16,0,0,1,.15.08l.23.3a1.43,1.43,0,0,1-.34.31,2,2,0,0,1-.41.22,2.42,2.42,0,0,1-.46.13,2.63,2.63,0,0,1-.49,0,1.89,1.89,0,0,1-.79-.16,1.8,1.8,0,0,1-.64-.46,2,2,0,0,1-.42-.74,3.07,3.07,0,0,1-.15-1,3.14,3.14,0,0,1,.14-.94,2,2,0,0,1,.41-.74,1.94,1.94,0,0,1,.67-.49A2.22,2.22,0,0,1,51,36a2.08,2.08,0,0,1,.85.16,1.92,1.92,0,0,1,.65.44Z"/><path d="M53.7,36.72a2.61,2.61,0,0,1,.81-.54,2.5,2.5,0,0,1,1-.18,1.62,1.62,0,0,1,.68.13,1.5,1.5,0,0,1,.5.35A1.59,1.59,0,0,1,57,37a2.24,2.24,0,0,1,.1.7v2.92h-.36a.3.3,0,0,1-.18,0,.28.28,0,0,1-.1-.15L56.34,40a4.11,4.11,0,0,1-.35.29,1.65,1.65,0,0,1-.36.22,2.7,2.7,0,0,1-.4.14,2.26,2.26,0,0,1-.47,0,1.63,1.63,0,0,1-.5-.07,1.16,1.16,0,0,1-.41-.22.88.88,0,0,1-.27-.38,1.27,1.27,0,0,1-.1-.54,1,1,0,0,1,.15-.52,1.29,1.29,0,0,1,.48-.44,3.32,3.32,0,0,1,.87-.32,6.65,6.65,0,0,1,1.31-.14v-.36a1.23,1.23,0,0,0-.23-.8.83.83,0,0,0-.67-.27,1.47,1.47,0,0,0-.5.07,2.28,2.28,0,0,0-.35.17l-.25.17a.35.35,0,0,1-.21.07.23.23,0,0,1-.14,0,.36.36,0,0,1-.1-.11Zm2.58,1.86a5.88,5.88,0,0,0-.94.09,3,3,0,0,0-.63.18,1,1,0,0,0-.36.27.55.55,0,0,0-.11.34.75.75,0,0,0,.06.31.49.49,0,0,0,.16.21.55.55,0,0,0,.24.12,1.35,1.35,0,0,0,.29,0,1.51,1.51,0,0,0,.72-.16,2.49,2.49,0,0,0,.3-.19,2.21,2.21,0,0,0,.28-.26v-1Z"/><path d="M59.36,37a2,2,0,0,1,.53-.73,1.14,1.14,0,0,1,.77-.26,1.27,1.27,0,0,1,.28,0,.64.64,0,0,1,.24.1l-.06.6c0,.08-.06.11-.13.11l-.18,0a1.23,1.23,0,0,0-.65,0,.8.8,0,0,0-.3.19,1.11,1.11,0,0,0-.24.31,2.76,2.76,0,0,0-.19.42v2.88H58.6V36.08h.46a.26.26,0,0,1,.18.05.3.3,0,0,1,.07.17Z"/><path d="M65.87,40a1.55,1.55,0,0,1-.36.31,2.58,2.58,0,0,1-.44.22,2.72,2.72,0,0,1-.49.13,2.81,2.81,0,0,1-.5,0,2.21,2.21,0,0,1-.87-.16,1.93,1.93,0,0,1-.69-.47,2.29,2.29,0,0,1-.45-.76,3,3,0,0,1-.16-1,2.6,2.6,0,0,1,.15-.89,2.14,2.14,0,0,1,.42-.72,2,2,0,0,1,.67-.48,2.28,2.28,0,0,1,1.65,0,1.62,1.62,0,0,1,.6.4,1.88,1.88,0,0,1,.4.64,2.34,2.34,0,0,1,.14.87.47.47,0,0,1,0,.25.18.18,0,0,1-.15.06h-3a2.68,2.68,0,0,0,.12.75,1.58,1.58,0,0,0,.29.53,1.2,1.2,0,0,0,.45.32,1.54,1.54,0,0,0,.58.11,1.64,1.64,0,0,0,.52-.07l.38-.15.26-.15a.32.32,0,0,1,.18-.07.16.16,0,0,1,.15.08Zm-.65-2.14a1.6,1.6,0,0,0-.08-.51,1.13,1.13,0,0,0-.23-.4,1,1,0,0,0-.37-.26,1.26,1.26,0,0,0-.49-.09,1.21,1.21,0,0,0-.91.34,1.61,1.61,0,0,0-.42.93h2.5Z"/><path d="M26.07,56.84H25.4a.29.29,0,0,1-.19-.06.42.42,0,0,1-.11-.15l-.6-1.56H21.6L21,56.63a.33.33,0,0,1-.1.14.29.29,0,0,1-.19.06H20l2.58-6.45h.88Zm-1.82-2.4-1-2.62-.09-.27-.09-.33a5.68,5.68,0,0,1-.19.61l-1,2.62h2.39Z"/><path d="M28.33,56.91a1.1,1.1,0,0,1-.83-.3,1.22,1.22,0,0,1-.29-.87V53h-.55a.16.16,0,0,1-.12,0,.17.17,0,0,1-.05-.13v-.32l.75-.09L27.42,51a.24.24,0,0,1,.06-.11.16.16,0,0,1,.12,0H28v1.57h1.32V53H28V55.7a.62.62,0,0,0,.14.43.49.49,0,0,0,.36.14.73.73,0,0,0,.22,0l.16-.07L29,56.1l.08,0a.14.14,0,0,1,.11.08l.23.38a1.39,1.39,0,0,1-.5.3A2.54,2.54,0,0,1,28.33,56.91Z"/><path d="M31.32,52.89A2.32,2.32,0,0,1,32,52.4a1.8,1.8,0,0,1,.82-.18,1.69,1.69,0,0,1,.66.12,1.3,1.3,0,0,1,.48.35,1.52,1.52,0,0,1,.29.55,2.26,2.26,0,0,1,.1.71v2.9h-.81V54a1.19,1.19,0,0,0-.24-.8.89.89,0,0,0-.72-.29,1.35,1.35,0,0,0-.66.17,2.06,2.06,0,0,0-.57.46v3.36h-.81V50.22h.81Z"/><path d="M36.67,50.21v6.63h-.8V50.21Z"/><path d="M42,56.2a1.55,1.55,0,0,1-.36.31,2.58,2.58,0,0,1-.44.22,2.52,2.52,0,0,1-.49.13,2.81,2.81,0,0,1-.5,0,2.28,2.28,0,0,1-.87-.16,1.84,1.84,0,0,1-.69-.47,2.29,2.29,0,0,1-.45-.76,3,3,0,0,1-.16-1,2.6,2.6,0,0,1,.15-.89,2.14,2.14,0,0,1,.42-.72,2,2,0,0,1,.67-.48,2.28,2.28,0,0,1,1.65,0,1.62,1.62,0,0,1,.6.4,1.88,1.88,0,0,1,.4.64,2.34,2.34,0,0,1,.14.87.47.47,0,0,1,0,.25.18.18,0,0,1-.15.06h-3a2.68,2.68,0,0,0,.12.75,1.58,1.58,0,0,0,.29.53,1.2,1.2,0,0,0,.45.32,1.54,1.54,0,0,0,.58.11,1.6,1.6,0,0,0,.52-.07l.38-.15a1.5,1.5,0,0,0,.26-.15.32.32,0,0,1,.18-.07.16.16,0,0,1,.15.08Zm-.65-2.14a1.6,1.6,0,0,0-.08-.51,1.13,1.13,0,0,0-.23-.4,1,1,0,0,0-.37-.26,1.3,1.3,0,0,0-.49-.09,1.21,1.21,0,0,0-.91.34,1.61,1.61,0,0,0-.42.93h2.5Z"/><path d="M47.58,56.84h-.8V53H44.43v2.74a.62.62,0,0,0,.14.43.49.49,0,0,0,.36.14.73.73,0,0,0,.22,0l.16-.07.11-.07.08,0a.14.14,0,0,1,.11.08l.23.38a1.39,1.39,0,0,1-.5.3,1.81,1.81,0,0,1-.6.11,1.1,1.1,0,0,1-.83-.3,1.22,1.22,0,0,1-.29-.87V53h-.55a.16.16,0,0,1-.12,0,.17.17,0,0,1-.05-.13v-.32l.75-.1.18-1.4a.24.24,0,0,1,.06-.11.16.16,0,0,1,.12,0h.4V52.4h3.15v4.44Zm.2-6a.54.54,0,0,1-.05.22.46.46,0,0,1-.13.18.57.57,0,0,1-.18.12.54.54,0,0,1-.22,0,.78.78,0,0,1-.22,0,.55.55,0,0,1-.3-.3.62.62,0,0,1,0-.44.55.55,0,0,1,.3-.3.51.51,0,0,1,.44,0,.57.57,0,0,1,.18.12.83.83,0,0,1,.13.18A.51.51,0,0,1,47.78,50.82Z"/><path d="M52.38,53.09l-.07.08a.15.15,0,0,1-.1,0,.26.26,0,0,1-.15-.06l-.2-.12a1.58,1.58,0,0,0-.29-.12,1.65,1.65,0,0,0-.43-.06,1.38,1.38,0,0,0-.59.12,1.18,1.18,0,0,0-.43.34,1.51,1.51,0,0,0-.26.54,2.63,2.63,0,0,0-.09.72,2.78,2.78,0,0,0,.09.74,1.52,1.52,0,0,0,.27.54,1,1,0,0,0,.42.33,1.23,1.23,0,0,0,.55.11,1.26,1.26,0,0,0,.79-.23l.21-.16a.25.25,0,0,1,.16-.07.16.16,0,0,1,.15.08l.22.29a1.43,1.43,0,0,1-.34.31,2,2,0,0,1-.41.22,2.42,2.42,0,0,1-.46.13,2.63,2.63,0,0,1-.49,0,1.89,1.89,0,0,1-.79-.16,1.8,1.8,0,0,1-.64-.46,2,2,0,0,1-.42-.74,3.07,3.07,0,0,1-.15-1,3.14,3.14,0,0,1,.14-.94,2,2,0,0,1,.41-.74,1.94,1.94,0,0,1,.67-.49,2.22,2.22,0,0,1,.92-.18,2.08,2.08,0,0,1,.85.16,1.92,1.92,0,0,1,.65.44Z"/><path d="M56.61,53a.18.18,0,0,1-.17.1.33.33,0,0,1-.15-.05L56.08,53a1.6,1.6,0,0,0-.29-.11,1.58,1.58,0,0,0-.41,0,1.3,1.3,0,0,0-.36,0,.82.82,0,0,0-.28.14.6.6,0,0,0-.18.21.58.58,0,0,0-.06.26.41.41,0,0,0,.1.29.79.79,0,0,0,.27.2,1.88,1.88,0,0,0,.38.15l.43.14.43.16a1.33,1.33,0,0,1,.38.23,1.09,1.09,0,0,1,.27.33,1,1,0,0,1,.1.47,1.58,1.58,0,0,1-.11.58,1.39,1.39,0,0,1-.33.46,1.78,1.78,0,0,1-.54.31,2.1,2.1,0,0,1-.74.11,2.31,2.31,0,0,1-.86-.15,2.15,2.15,0,0,1-.66-.4l.19-.31A.2.2,0,0,1,53.9,56a.23.23,0,0,1,.13,0,.32.32,0,0,1,.17.06l.22.14a1.8,1.8,0,0,0,.31.14,1.51,1.51,0,0,0,.46.06,1.27,1.27,0,0,0,.41-.06,1,1,0,0,0,.29-.16.51.51,0,0,0,.17-.24.72.72,0,0,0,.06-.29.45.45,0,0,0-.1-.31,1,1,0,0,0-.27-.21,1.88,1.88,0,0,0-.38-.15l-.44-.14-.44-.16a1.43,1.43,0,0,1-.38-.23,1.13,1.13,0,0,1-.27-.34,1.09,1.09,0,0,1-.1-.5,1.25,1.25,0,0,1,.11-.5,1.18,1.18,0,0,1,.32-.42,1.58,1.58,0,0,1,.51-.29,2.08,2.08,0,0,1,.69-.11,2.29,2.29,0,0,1,.81.14,1.81,1.81,0,0,1,.62.39Z"/><path d="M24.12,67.6a.45.45,0,0,1-.09.1.21.21,0,0,1-.12,0,.34.34,0,0,1-.18-.08l-.26-.17a2.14,2.14,0,0,0-.37-.17,1.64,1.64,0,0,0-.53-.08,1.52,1.52,0,0,0-.51.08,1,1,0,0,0-.37.21.9.9,0,0,0-.23.32,1,1,0,0,0-.08.39.73.73,0,0,0,.13.45,1.14,1.14,0,0,0,.35.3,2.59,2.59,0,0,0,.5.22l.57.19a5.59,5.59,0,0,1,.57.22,2.33,2.33,0,0,1,.5.31,1.34,1.34,0,0,1,.35.46,1.51,1.51,0,0,1,.13.67,2.26,2.26,0,0,1-.14.79,2,2,0,0,1-.42.65,1.76,1.76,0,0,1-.68.43,2.6,2.6,0,0,1-.92.16,2.8,2.8,0,0,1-1.14-.23,2.89,2.89,0,0,1-.88-.61l.25-.41a.24.24,0,0,1,.09-.08.2.2,0,0,1,.11,0,.27.27,0,0,1,.13,0l.17.12.22.16a1.87,1.87,0,0,0,.28.16,1.6,1.6,0,0,0,.35.12,2,2,0,0,0,.45,0,1.55,1.55,0,0,0,.55-.09,1.27,1.27,0,0,0,.41-.24,1.08,1.08,0,0,0,.26-.37,1.21,1.21,0,0,0,.09-.48.82.82,0,0,0-.13-.48,1,1,0,0,0-.35-.31,2.09,2.09,0,0,0-.5-.21L22.11,70q-.28-.09-.57-.21a2.1,2.1,0,0,1-.5-.31,1.33,1.33,0,0,1-.35-.48,1.69,1.69,0,0,1-.13-.72,1.65,1.65,0,0,1,.13-.66,1.81,1.81,0,0,1,.39-.57,1.84,1.84,0,0,1,.63-.4,2.26,2.26,0,0,1,.85-.15,2.76,2.76,0,0,1,1,.17,2.22,2.22,0,0,1,.78.5Z"/><path d="M26.83,67.05a.54.54,0,0,1,0,.22.46.46,0,0,1-.13.18.54.54,0,0,1-.4.16.78.78,0,0,1-.22,0,.55.55,0,0,1-.3-.3.51.51,0,0,1,0-.44.55.55,0,0,1,.3-.3.54.54,0,0,1,.22,0,.78.78,0,0,1,.22,0,.57.57,0,0,1,.18.12.83.83,0,0,1,.13.18A.54.54,0,0,1,26.83,67.05Zm-.17,1.43V73h-.8V68.48Z"/><path d="M29,69.14a2.27,2.27,0,0,1,.32-.3,1.92,1.92,0,0,1,.35-.23,2.37,2.37,0,0,1,.4-.15,2.14,2.14,0,0,1,.45,0,1.69,1.69,0,0,1,.66.12,1.3,1.3,0,0,1,.48.35,1.52,1.52,0,0,1,.29.55,2.26,2.26,0,0,1,.1.71V73h-.81v-2.9a1.19,1.19,0,0,0-.24-.8.89.89,0,0,0-.72-.29,1.35,1.35,0,0,0-.66.17,2.06,2.06,0,0,0-.57.46V73h-.81V68.48h.48a.2.2,0,0,1,.21.17Z"/><path d="M37.44,68.66V69c0,.1-.06.16-.19.19l-.52.07a1.45,1.45,0,0,1,.15.66,1.32,1.32,0,0,1-.13.6,1.48,1.48,0,0,1-.35.47,1.57,1.57,0,0,1-.54.3,2.15,2.15,0,0,1-.68.1,2.35,2.35,0,0,1-.6-.08.7.7,0,0,0-.22.19.37.37,0,0,0-.08.2.28.28,0,0,0,.13.25.85.85,0,0,0,.35.12l.49,0,.57,0a5.54,5.54,0,0,1,.57.07,1.76,1.76,0,0,1,.49.16,1,1,0,0,1,.35.31.88.88,0,0,1,.13.51,1.21,1.21,0,0,1-.15.57,1.51,1.51,0,0,1-.42.49,2.11,2.11,0,0,1-.67.34,3,3,0,0,1-.9.13,3.2,3.2,0,0,1-.87-.1,1.87,1.87,0,0,1-.62-.27,1.11,1.11,0,0,1-.37-.38,1,1,0,0,1-.12-.46.8.8,0,0,1,.21-.57,1.35,1.35,0,0,1,.58-.37.87.87,0,0,1-.32-.24.65.65,0,0,1-.12-.41.48.48,0,0,1,0-.2.71.71,0,0,1,.11-.21,1.12,1.12,0,0,1,.18-.2,1.56,1.56,0,0,1,.25-.17,1.42,1.42,0,0,1-.53-.5,1.35,1.35,0,0,1-.19-.73,1.39,1.39,0,0,1,.13-.61,1.44,1.44,0,0,1,.91-.75,2.19,2.19,0,0,1,.7-.1,2.38,2.38,0,0,1,.55.06,1.78,1.78,0,0,1,.47.19h1.23Zm-.82,4.62a.4.4,0,0,0-.09-.27.63.63,0,0,0-.25-.16,1.27,1.27,0,0,0-.37-.08l-.45,0-.48,0-.47,0a1.3,1.3,0,0,0-.41.29.6.6,0,0,0,.16.94,1.3,1.3,0,0,0,.41.15,2.46,2.46,0,0,0,.58.06,2.52,2.52,0,0,0,.58-.06,1.21,1.21,0,0,0,.43-.17.75.75,0,0,0,.27-.26A.63.63,0,0,0,36.62,73.28Zm-1.44-2.47a1.18,1.18,0,0,0,.43-.07.86.86,0,0,0,.31-.19.81.81,0,0,0,.19-.29,1.1,1.1,0,0,0,.06-.37.9.9,0,0,0-.25-.67,1.22,1.22,0,0,0-1.48,0,1,1,0,0,0-.18,1,.81.81,0,0,0,.19.29,1,1,0,0,0,.31.19A1.09,1.09,0,0,0,35.18,70.81Z"/><path d="M39.39,66.41V73h-.8V66.41Z"/><path d="M44.7,72.4a1.55,1.55,0,0,1-.36.31,2.58,2.58,0,0,1-.44.22,2.52,2.52,0,0,1-.49.13,2.81,2.81,0,0,1-.5,0,2.28,2.28,0,0,1-.87-.16,1.84,1.84,0,0,1-.69-.47,2.29,2.29,0,0,1-.45-.76,3,3,0,0,1-.16-1,2.6,2.6,0,0,1,.15-.89,2.14,2.14,0,0,1,.42-.72,2,2,0,0,1,.67-.48,2.28,2.28,0,0,1,1.65,0,1.62,1.62,0,0,1,.6.4,1.88,1.88,0,0,1,.4.64,2.34,2.34,0,0,1,.14.87.47.47,0,0,1,0,.25.18.18,0,0,1-.15.06h-3a2.68,2.68,0,0,0,.12.75,1.58,1.58,0,0,0,.29.53,1.2,1.2,0,0,0,.45.32,1.54,1.54,0,0,0,.58.11,1.6,1.6,0,0,0,.52-.07l.38-.15a1.5,1.5,0,0,0,.26-.15.32.32,0,0,1,.18-.07.16.16,0,0,1,.15.08Zm-.64-2.14a1.6,1.6,0,0,0-.08-.51,1.13,1.13,0,0,0-.23-.4,1,1,0,0,0-.37-.26,1.3,1.3,0,0,0-.49-.09,1.21,1.21,0,0,0-.91.34,1.61,1.61,0,0,0-.42.93h2.5Z"/><path d="M46,70H48.2v.68H46Z"/><path d="M52.31,69.23a.18.18,0,0,1-.17.1.33.33,0,0,1-.15,0l-.21-.11a1.6,1.6,0,0,0-.29-.11,1.38,1.38,0,0,0-.77,0,.82.82,0,0,0-.28.14.6.6,0,0,0-.18.21.58.58,0,0,0-.06.26.41.41,0,0,0,.1.29.79.79,0,0,0,.27.2,1.88,1.88,0,0,0,.38.15l.43.14.43.16a1.33,1.33,0,0,1,.38.23,1.09,1.09,0,0,1,.27.33,1,1,0,0,1,.1.47,1.58,1.58,0,0,1-.11.58,1.39,1.39,0,0,1-.33.46,1.78,1.78,0,0,1-.54.31,2.1,2.1,0,0,1-.74.11,2.31,2.31,0,0,1-.86-.15,2.15,2.15,0,0,1-.66-.4l.19-.31a.2.2,0,0,1,.09-.09.23.23,0,0,1,.13,0,.32.32,0,0,1,.17.06l.22.14a1.8,1.8,0,0,0,.31.14,1.51,1.51,0,0,0,.46.06,1.27,1.27,0,0,0,.41-.06,1,1,0,0,0,.29-.16.51.51,0,0,0,.17-.24.72.72,0,0,0,.06-.29.45.45,0,0,0-.1-.31,1,1,0,0,0-.27-.21,1.88,1.88,0,0,0-.38-.15L50.63,71l-.44-.16a1.43,1.43,0,0,1-.38-.23,1.13,1.13,0,0,1-.27-.34,1.09,1.09,0,0,1-.1-.5,1.25,1.25,0,0,1,.11-.5,1.18,1.18,0,0,1,.32-.42,1.58,1.58,0,0,1,.51-.29,2.08,2.08,0,0,1,.69-.11,2.29,2.29,0,0,1,.81.14,1.81,1.81,0,0,1,.62.39Z"/><path d="M57.57,72.4a1.55,1.55,0,0,1-.36.31,2.58,2.58,0,0,1-.44.22,2.52,2.52,0,0,1-.49.13,2.81,2.81,0,0,1-.5,0,2.28,2.28,0,0,1-.87-.16,1.84,1.84,0,0,1-.69-.47,2.29,2.29,0,0,1-.45-.76,3,3,0,0,1-.16-1,2.6,2.6,0,0,1,.15-.89,2.14,2.14,0,0,1,.42-.72,2,2,0,0,1,.67-.48,2.28,2.28,0,0,1,1.65,0,1.62,1.62,0,0,1,.6.4,1.88,1.88,0,0,1,.4.64,2.34,2.34,0,0,1,.14.87.47.47,0,0,1,0,.25.18.18,0,0,1-.15.06H54.4a2.68,2.68,0,0,0,.12.75,1.58,1.58,0,0,0,.29.53,1.2,1.2,0,0,0,.45.32,1.54,1.54,0,0,0,.58.11,1.6,1.6,0,0,0,.52-.07l.38-.15a1.5,1.5,0,0,0,.26-.15.32.32,0,0,1,.18-.07.16.16,0,0,1,.15.08Zm-.65-2.14a1.6,1.6,0,0,0-.08-.51,1.13,1.13,0,0,0-.23-.4,1,1,0,0,0-.37-.26,1.24,1.24,0,0,0-.48-.09,1.21,1.21,0,0,0-.91.34,1.61,1.61,0,0,0-.42.93h2.49Z"/><path d="M62.67,73H61.9a.25.25,0,0,1-.16-.05.31.31,0,0,1-.09-.11L60.5,71.09a.56.56,0,0,1,0,.12.39.39,0,0,1-.06.11l-1.06,1.55a.52.52,0,0,1-.1.11.22.22,0,0,1-.14,0h-.7L60,70.69l-1.54-2.22h.77a.24.24,0,0,1,.14,0,.24.24,0,0,1,.08.09l1.12,1.71a.8.8,0,0,1,.11-.25l1-1.44a.45.45,0,0,1,.09-.1.15.15,0,0,1,.11,0h.74l-1.54,2.18Z"/><path d="M66.46,73V69.17l-.5-.06A.39.39,0,0,1,65.8,69a.17.17,0,0,1-.06-.14v-.33h.72v-.44a2.19,2.19,0,0,1,.11-.7,1.45,1.45,0,0,1,.31-.51,1.27,1.27,0,0,1,.49-.32,1.88,1.88,0,0,1,.65-.11,1.69,1.69,0,0,1,.56.09l0,.4a.13.13,0,0,1-.12.12h-.29a1.52,1.52,0,0,0-.38,0,.55.55,0,0,0-.29.18.91.91,0,0,0-.19.32,1.7,1.7,0,0,0-.07.49v.42h1.31v.58H67.24V73Z"/><path d="M69.59,69.12a2.61,2.61,0,0,1,.81-.54,2.5,2.5,0,0,1,1-.18,1.65,1.65,0,0,1,.68.13,1.37,1.37,0,0,1,.5.35,1.44,1.44,0,0,1,.31.54,2.24,2.24,0,0,1,.1.7V73H72.6a.3.3,0,0,1-.18,0,.28.28,0,0,1-.1-.15l-.09-.43a4.11,4.11,0,0,1-.35.29,2.16,2.16,0,0,1-.36.22,2.7,2.7,0,0,1-.4.14,2.26,2.26,0,0,1-.47.05,1.63,1.63,0,0,1-.5-.07,1.16,1.16,0,0,1-.41-.22,1,1,0,0,1-.28-.38,1.27,1.27,0,0,1-.1-.54,1,1,0,0,1,.15-.52A1.29,1.29,0,0,1,70,71a3.32,3.32,0,0,1,.87-.32,6.65,6.65,0,0,1,1.31-.14v-.36a1.23,1.23,0,0,0-.23-.8.83.83,0,0,0-.67-.27,1.47,1.47,0,0,0-.5.07,2.28,2.28,0,0,0-.35.17l-.25.17a.35.35,0,0,1-.21.07.23.23,0,0,1-.14,0,.36.36,0,0,1-.1-.11ZM72.18,71a5.88,5.88,0,0,0-.94.09,3,3,0,0,0-.63.18,1,1,0,0,0-.36.27.6.6,0,0,0-.11.34.75.75,0,0,0,.06.31.49.49,0,0,0,.16.21.55.55,0,0,0,.24.12.92.92,0,0,0,.29,0,1.51,1.51,0,0,0,.72-.16,2.49,2.49,0,0,0,.3-.19,2.21,2.21,0,0,0,.28-.26V71Z"/><path d="M77.69,69.29l-.07.08a.15.15,0,0,1-.1,0,.26.26,0,0,1-.15-.06,1.17,1.17,0,0,0-.2-.12,1.58,1.58,0,0,0-.29-.12,1.65,1.65,0,0,0-.43-.06,1.38,1.38,0,0,0-.59.12,1.18,1.18,0,0,0-.43.34,1.51,1.51,0,0,0-.26.54,2.63,2.63,0,0,0-.09.72,2.78,2.78,0,0,0,.09.74,1.52,1.52,0,0,0,.27.54,1,1,0,0,0,.42.33,1.23,1.23,0,0,0,.55.11,1.26,1.26,0,0,0,.79-.23l.21-.16a.25.25,0,0,1,.16-.07.16.16,0,0,1,.15.08l.22.29a1.43,1.43,0,0,1-.34.31,2,2,0,0,1-.41.22,2.42,2.42,0,0,1-.46.13,2.63,2.63,0,0,1-.49,0,1.89,1.89,0,0,1-.79-.16,1.8,1.8,0,0,1-.64-.46,2,2,0,0,1-.42-.74,3.07,3.07,0,0,1-.15-1,3.14,3.14,0,0,1,.14-.94,2,2,0,0,1,.41-.74,1.94,1.94,0,0,1,.67-.49,2.22,2.22,0,0,1,.92-.18,2.08,2.08,0,0,1,.85.16,1.92,1.92,0,0,1,.65.44Z"/><path d="M80.1,67.05a.54.54,0,0,1,0,.22.46.46,0,0,1-.13.18.57.57,0,0,1-.18.12.54.54,0,0,1-.22,0,.78.78,0,0,1-.22,0,.55.55,0,0,1-.3-.3.62.62,0,0,1,0-.44.55.55,0,0,1,.3-.3.54.54,0,0,1,.22,0,.78.78,0,0,1,.22,0,.57.57,0,0,1,.18.12.83.83,0,0,1,.13.18A.42.42,0,0,1,80.1,67.05Zm-.17,1.43V73h-.8V68.48Z"/><path d="M82.35,66.41V73h-.8V66.41Z"/><path d="M84.93,67.05a.54.54,0,0,1-.05.22.46.46,0,0,1-.13.18.54.54,0,0,1-.4.16.78.78,0,0,1-.22,0,.55.55,0,0,1-.3-.3.51.51,0,0,1,0-.44.55.55,0,0,1,.3-.3.54.54,0,0,1,.22,0,.78.78,0,0,1,.22,0,.57.57,0,0,1,.18.12.83.83,0,0,1,.13.18A.42.42,0,0,1,84.93,67.05Zm-.17,1.43V73H84V68.48Z"/><path d="M90.61,73h-.8V69.15H87.46v2.74a.62.62,0,0,0,.14.43.49.49,0,0,0,.36.14.73.73,0,0,0,.22,0l.16-.07.11-.07.08,0a.14.14,0,0,1,.11.08l.23.38a1.39,1.39,0,0,1-.5.3,1.81,1.81,0,0,1-.6.11,1.1,1.1,0,0,1-.83-.3,1.22,1.22,0,0,1-.29-.87V69.17H86.1a.16.16,0,0,1-.12,0,.17.17,0,0,1,0-.13v-.32l.75-.1.18-1.4a.24.24,0,0,1,.06-.11A.16.16,0,0,1,87,67h.4V68.6h3.15V73Zm.2-6a.54.54,0,0,1,0,.22.46.46,0,0,1-.13.18.57.57,0,0,1-.18.12.54.54,0,0,1-.22,0,.78.78,0,0,1-.22,0,.55.55,0,0,1-.3-.3.63.63,0,0,1,0-.44.55.55,0,0,1,.3-.3.51.51,0,0,1,.44,0,.57.57,0,0,1,.18.12.83.83,0,0,1,.13.18A.4.4,0,0,1,90.81,67Z"/><path d="M95.93,72.4a1.55,1.55,0,0,1-.36.31,2.58,2.58,0,0,1-.44.22,2.72,2.72,0,0,1-.49.13,2.81,2.81,0,0,1-.5,0,2.21,2.21,0,0,1-.87-.16,1.93,1.93,0,0,1-.69-.47,2.29,2.29,0,0,1-.45-.76,3,3,0,0,1-.16-1,2.6,2.6,0,0,1,.15-.89,2.14,2.14,0,0,1,.42-.72,2,2,0,0,1,.67-.48,2.28,2.28,0,0,1,1.65,0,1.62,1.62,0,0,1,.6.4,1.88,1.88,0,0,1,.4.64,2.34,2.34,0,0,1,.14.87.47.47,0,0,1,0,.25.18.18,0,0,1-.15.06h-3a2.68,2.68,0,0,0,.12.75,1.58,1.58,0,0,0,.29.53,1.2,1.2,0,0,0,.45.32,1.54,1.54,0,0,0,.58.11,1.64,1.64,0,0,0,.52-.07l.38-.15.26-.15a.32.32,0,0,1,.18-.07.16.16,0,0,1,.15.08Zm-.65-2.14a1.6,1.6,0,0,0-.08-.51,1.13,1.13,0,0,0-.23-.4,1,1,0,0,0-.37-.26,1.22,1.22,0,0,0-.49-.09,1.21,1.21,0,0,0-.91.34,1.61,1.61,0,0,0-.42.93h2.5Z"/><path d="M100,69.23a.18.18,0,0,1-.17.1.33.33,0,0,1-.15,0l-.21-.11a1.6,1.6,0,0,0-.29-.11,1.27,1.27,0,0,0-.41-.06,1.3,1.3,0,0,0-.36,0,.82.82,0,0,0-.28.14.6.6,0,0,0-.18.21.58.58,0,0,0-.06.26A.41.41,0,0,0,98,70a.79.79,0,0,0,.27.2,1.88,1.88,0,0,0,.38.15l.43.14.43.16a1.33,1.33,0,0,1,.38.23,1.09,1.09,0,0,1,.27.33,1,1,0,0,1,.1.47,1.58,1.58,0,0,1-.11.58,1.39,1.39,0,0,1-.33.46,1.78,1.78,0,0,1-.54.31,2.1,2.1,0,0,1-.74.11,2.31,2.31,0,0,1-.86-.15,2.15,2.15,0,0,1-.66-.4l.19-.31a.2.2,0,0,1,.09-.09.23.23,0,0,1,.13,0,.32.32,0,0,1,.17.06l.22.14a1.8,1.8,0,0,0,.31.14,1.51,1.51,0,0,0,.46.06,1.27,1.27,0,0,0,.41-.06,1,1,0,0,0,.29-.16.51.51,0,0,0,.17-.24.72.72,0,0,0,.06-.29.45.45,0,0,0-.1-.31,1,1,0,0,0-.27-.21,1.88,1.88,0,0,0-.38-.15L98.31,71l-.44-.16a1.43,1.43,0,0,1-.38-.23,1.13,1.13,0,0,1-.27-.34,1.09,1.09,0,0,1-.1-.5,1.25,1.25,0,0,1,.11-.5,1.18,1.18,0,0,1,.32-.42,1.58,1.58,0,0,1,.51-.29,2.08,2.08,0,0,1,.69-.11,2.29,2.29,0,0,1,.81.14,1.81,1.81,0,0,1,.62.39Z"/><path d="M22.58,13.88H23a1,1,0,0,0,.38-.06.63.63,0,0,0,.26-.2l2.39-3a.94.94,0,0,1,.31-.27,1,1,0,0,1,.42-.07h1.39l-2.92,3.61a1.62,1.62,0,0,1-.53.47,1.58,1.58,0,0,1,.36.2,1.43,1.43,0,0,1,.3.34l3,4.06H26.91a.94.94,0,0,1-.43-.08.69.69,0,0,1-.24-.24l-2.45-3.2a.7.7,0,0,0-.26-.23,1.16,1.16,0,0,0-.43-.07h-.51v3.82H21V10.25h1.61v3.63Z"/><path d="M30.07,16a2.7,2.7,0,0,0,.17.82,1.62,1.62,0,0,0,.35.57,1.39,1.39,0,0,0,.51.34,2,2,0,0,0,.66.11,2.22,2.22,0,0,0,.62-.08,3.36,3.36,0,0,0,.46-.19l.34-.19a.53.53,0,0,1,.29-.08.32.32,0,0,1,.28.14l.41.54a2.5,2.5,0,0,1-.55.48,3.15,3.15,0,0,1-.64.31,4,4,0,0,1-.68.17,5.16,5.16,0,0,1-.67.05,3.27,3.27,0,0,1-1.19-.21,2.59,2.59,0,0,1-1-.63,2.9,2.9,0,0,1-.64-1,3.88,3.88,0,0,1-.23-1.42,3.62,3.62,0,0,1,.2-1.19,2.91,2.91,0,0,1,.59-1,2.69,2.69,0,0,1,.93-.65,3.08,3.08,0,0,1,1.24-.24,2.83,2.83,0,0,1,1.07.19,2.68,2.68,0,0,1,.85.54,2.55,2.55,0,0,1,.56.88,3.16,3.16,0,0,1,.2,1.19.92.92,0,0,1-.07.45.3.3,0,0,1-.28.12H30.07Zm2.82-.89a1.91,1.91,0,0,0-.08-.54,1.22,1.22,0,0,0-.24-.45,1.12,1.12,0,0,0-.41-.3,1.5,1.5,0,0,0-.58-.11,1.35,1.35,0,0,0-1,.37,1.77,1.77,0,0,0-.47,1h2.79Z"/><path d="M41.05,12.76,37.7,20.61a.61.61,0,0,1-.17.24.56.56,0,0,1-.32.08h-1.1l1.15-2.47-2.49-5.69h1.3a.41.41,0,0,1,.27.08.53.53,0,0,1,.15.19l1.31,3.19c0,.11.08.22.11.32l.09.33.11-.33.12-.33L39.47,13a.45.45,0,0,1,.16-.2.44.44,0,0,1,.25-.08h1.17Z"/><circle class="cls-2" cx="119" cy="37.5" r="4"/><circle class="cls-3" cx="119" cy="53.73" r="4"/><circle class="cls-4" cx="119" cy="69.95" r="4"/><path d="M156.7,40.14h-.87V33.69h.87Z"/><path d="M162.27,33.51v6.63h-.48a.21.21,0,0,1-.22-.17l-.07-.55a2.78,2.78,0,0,1-.67.57,1.77,1.77,0,0,1-1.57.07,1.52,1.52,0,0,1-.54-.44,2.16,2.16,0,0,1-.35-.73,3.81,3.81,0,0,1-.12-1,3.14,3.14,0,0,1,.13-.94,2.23,2.23,0,0,1,.39-.75,1.78,1.78,0,0,1,.62-.5,1.84,1.84,0,0,1,.83-.18,1.74,1.74,0,0,1,.72.14,1.69,1.69,0,0,1,.53.39V33.53h.8Zm-.8,3.15a1.27,1.27,0,0,0-.49-.42,1.37,1.37,0,0,0-.58-.12,1.17,1.17,0,0,0-1,.45,2.12,2.12,0,0,0-.34,1.3,3.28,3.28,0,0,0,.08.76,1.57,1.57,0,0,0,.22.52.86.86,0,0,0,.36.3,1.26,1.26,0,0,0,.49.09,1.31,1.31,0,0,0,.69-.18,1.85,1.85,0,0,0,.54-.51V36.66Z"/><path d="M167.57,39.5a1.55,1.55,0,0,1-.36.31,2.58,2.58,0,0,1-.44.22,2.52,2.52,0,0,1-.49.13,2.81,2.81,0,0,1-.5,0,2.28,2.28,0,0,1-.87-.16,1.84,1.84,0,0,1-.69-.47,2.29,2.29,0,0,1-.45-.76,3,3,0,0,1-.16-1,2.6,2.6,0,0,1,.15-.89,2.14,2.14,0,0,1,.42-.72,2,2,0,0,1,.67-.48,2.28,2.28,0,0,1,1.65,0,1.62,1.62,0,0,1,.6.4,1.88,1.88,0,0,1,.4.64,2.34,2.34,0,0,1,.14.87.47.47,0,0,1,0,.25.18.18,0,0,1-.15.06h-3a2.68,2.68,0,0,0,.12.75,1.58,1.58,0,0,0,.29.53,1.2,1.2,0,0,0,.45.32,1.54,1.54,0,0,0,.58.11,1.6,1.6,0,0,0,.52-.07l.38-.15a1.5,1.5,0,0,0,.26-.15.32.32,0,0,1,.18-.07.16.16,0,0,1,.15.08Zm-.65-2.14a1.6,1.6,0,0,0-.08-.51,1.13,1.13,0,0,0-.23-.4,1,1,0,0,0-.37-.26,1.3,1.3,0,0,0-.49-.09,1.21,1.21,0,0,0-.91.34,1.61,1.61,0,0,0-.42.93h2.5Z"/><path d="M169.71,36.24a2.91,2.91,0,0,1,.31-.3,1.92,1.92,0,0,1,.35-.23,2.37,2.37,0,0,1,.4-.15,2.14,2.14,0,0,1,.45-.05,1.69,1.69,0,0,1,.66.12,1.3,1.3,0,0,1,.48.35,1.52,1.52,0,0,1,.29.55,2.26,2.26,0,0,1,.1.71v2.9h-.81v-2.9a1.19,1.19,0,0,0-.24-.8.89.89,0,0,0-.72-.29,1.35,1.35,0,0,0-.66.17,2.06,2.06,0,0,0-.57.46v3.36h-.81V35.58h.48a.2.2,0,0,1,.21.17Z"/><path d="M178.47,40.14h-.8V36.25h-2.35V39a.62.62,0,0,0,.14.43.49.49,0,0,0,.36.14.73.73,0,0,0,.22,0l.16-.07.12-.07.08,0a.14.14,0,0,1,.11.08l.23.38a1.39,1.39,0,0,1-.5.3,1.81,1.81,0,0,1-.6.11,1.1,1.1,0,0,1-.83-.3,1.22,1.22,0,0,1-.29-.87V36.27H174a.16.16,0,0,1-.12,0,.17.17,0,0,1,0-.13v-.32l.75-.1.18-1.4a.24.24,0,0,1,.06-.11.16.16,0,0,1,.12,0h.41V35.7h3.15Zm.2-6a.54.54,0,0,1,0,.22.46.46,0,0,1-.13.18.57.57,0,0,1-.18.12.54.54,0,0,1-.22,0,.78.78,0,0,1-.22,0,.55.55,0,0,1-.3-.3.51.51,0,0,1,0-.44.55.55,0,0,1,.3-.3.51.51,0,0,1,.44,0,.57.57,0,0,1,.18.12.83.83,0,0,1,.13.18A.42.42,0,0,1,178.67,34.12Z"/><path d="M180.41,40.14V36.27l-.5-.06a.34.34,0,0,1-.16-.07.17.17,0,0,1-.06-.14v-.33h.72v-.25a2.15,2.15,0,0,1,.13-.77,1.73,1.73,0,0,1,.39-.6,1.69,1.69,0,0,1,.65-.39,2.74,2.74,0,0,1,.9-.14l.35,0,.31.07,0,.42a.06.06,0,0,1,0,.06l-.08,0h-.29a1.69,1.69,0,0,0-1.16.33,1.29,1.29,0,0,0-.36,1v.23h2.75v4.47h-.81V36.25H181.2v3.89Z"/><path d="M188.76,36.39l-.07.08a.15.15,0,0,1-.1,0,.26.26,0,0,1-.15-.06l-.2-.12a1.58,1.58,0,0,0-.29-.12,1.65,1.65,0,0,0-.43-.06,1.38,1.38,0,0,0-.59.12,1.18,1.18,0,0,0-.43.34,1.51,1.51,0,0,0-.26.54,2.63,2.63,0,0,0-.09.72,2.78,2.78,0,0,0,.09.74,1.52,1.52,0,0,0,.27.54,1,1,0,0,0,.42.33,1.23,1.23,0,0,0,.55.11,1.26,1.26,0,0,0,.79-.23l.21-.16a.25.25,0,0,1,.16-.07.16.16,0,0,1,.15.08l.22.29a1.43,1.43,0,0,1-.34.31,2,2,0,0,1-.41.22,2.42,2.42,0,0,1-.46.13,2.63,2.63,0,0,1-.49,0,1.89,1.89,0,0,1-.79-.16,1.8,1.8,0,0,1-.64-.46,2,2,0,0,1-.42-.74,3.07,3.07,0,0,1-.15-1,3.14,3.14,0,0,1,.14-.94,2,2,0,0,1,.41-.74,1.94,1.94,0,0,1,.67-.49,2.22,2.22,0,0,1,.92-.18,2.08,2.08,0,0,1,.85.16,1.92,1.92,0,0,1,.65.44Z"/><path d="M190.21,36.22a2.61,2.61,0,0,1,.81-.54,2.5,2.5,0,0,1,1-.18,1.62,1.62,0,0,1,.68.13,1.5,1.5,0,0,1,.5.35,1.59,1.59,0,0,1,.31.54,2.24,2.24,0,0,1,.1.7v2.92h-.36a.3.3,0,0,1-.18,0,.28.28,0,0,1-.1-.15l-.09-.43a4.11,4.11,0,0,1-.35.29,1.65,1.65,0,0,1-.36.22,2.7,2.7,0,0,1-.4.14,2.26,2.26,0,0,1-.47,0,1.63,1.63,0,0,1-.5-.07,1.16,1.16,0,0,1-.41-.22.88.88,0,0,1-.27-.38A1.27,1.27,0,0,1,190,39a1,1,0,0,1,.15-.52,1.29,1.29,0,0,1,.48-.44,3.32,3.32,0,0,1,.87-.32,6.65,6.65,0,0,1,1.31-.14v-.36a1.23,1.23,0,0,0-.23-.8.83.83,0,0,0-.67-.27,1.47,1.47,0,0,0-.5.07,2.28,2.28,0,0,0-.35.17l-.25.17a.35.35,0,0,1-.21.07.23.23,0,0,1-.14,0,.36.36,0,0,1-.1-.11Zm2.58,1.86a5.88,5.88,0,0,0-.94.09,3,3,0,0,0-.63.18,1,1,0,0,0-.36.27.55.55,0,0,0-.11.34.75.75,0,0,0,.06.31.49.49,0,0,0,.16.21.55.55,0,0,0,.24.12,1.35,1.35,0,0,0,.29,0,1.51,1.51,0,0,0,.72-.16,2.49,2.49,0,0,0,.3-.19,2.21,2.21,0,0,0,.28-.26v-1Z"/><path d="M199.29,40.14h-.8V36.25h-2.35V39a.62.62,0,0,0,.14.43.49.49,0,0,0,.36.14.73.73,0,0,0,.22,0l.16-.07.12-.07.08,0a.14.14,0,0,1,.11.08l.23.38a1.39,1.39,0,0,1-.5.3,1.81,1.81,0,0,1-.6.11,1.1,1.1,0,0,1-.83-.3,1.22,1.22,0,0,1-.29-.87V36.27h-.55a.16.16,0,0,1-.12,0,.17.17,0,0,1,0-.13v-.32l.75-.1.18-1.4a.24.24,0,0,1,.06-.11.16.16,0,0,1,.12,0h.41V35.7h3.15Zm.2-6a.54.54,0,0,1-.05.22.46.46,0,0,1-.13.18.57.57,0,0,1-.18.12.54.54,0,0,1-.22,0,.78.78,0,0,1-.22,0,.55.55,0,0,1-.3-.3.51.51,0,0,1,0-.44.55.55,0,0,1,.3-.3.51.51,0,0,1,.44,0,.57.57,0,0,1,.18.12.83.83,0,0,1,.13.18A.42.42,0,0,1,199.49,34.12Z"/><path d="M202.84,35.51a2.37,2.37,0,0,1,.9.17,1.84,1.84,0,0,1,.68.47,2,2,0,0,1,.43.74,3.21,3.21,0,0,1,0,1.94,2.25,2.25,0,0,1-.43.74,2,2,0,0,1-.68.47,2.64,2.64,0,0,1-1.81,0,2,2,0,0,1-.69-.47,2,2,0,0,1-.43-.74,3.21,3.21,0,0,1,0-1.94,2.15,2.15,0,0,1,.43-.74,2,2,0,0,1,.69-.47A2.21,2.21,0,0,1,202.84,35.51Zm0,4.06a1.17,1.17,0,0,0,1-.45,2.1,2.1,0,0,0,.33-1.26,2.13,2.13,0,0,0-.33-1.27,1.17,1.17,0,0,0-1-.45,1.4,1.4,0,0,0-.6.12,1.07,1.07,0,0,0-.42.34,1.49,1.49,0,0,0-.25.54,2.72,2.72,0,0,0-.08.73,2.1,2.1,0,0,0,.33,1.26A1.2,1.2,0,0,0,202.84,39.57Z"/><path d="M207.09,36.24a2.91,2.91,0,0,1,.31-.3,1.92,1.92,0,0,1,.35-.23,2.37,2.37,0,0,1,.4-.15,2.14,2.14,0,0,1,.45-.05,1.69,1.69,0,0,1,.66.12,1.3,1.3,0,0,1,.48.35,1.52,1.52,0,0,1,.29.55,2.26,2.26,0,0,1,.1.71v2.9h-.81v-2.9a1.19,1.19,0,0,0-.24-.8.89.89,0,0,0-.72-.29,1.35,1.35,0,0,0-.66.17,2.06,2.06,0,0,0-.57.46v3.36h-.81V35.58h.48a.2.2,0,0,1,.21.17Z"/><path d="M161.78,53.11a3.79,3.79,0,0,1-.23,1.33,3,3,0,0,1-.65,1,2.91,2.91,0,0,1-1,.68,3.38,3.38,0,0,1-1.3.24,3.42,3.42,0,0,1-1.3-.24,2.91,2.91,0,0,1-1-.68,3.16,3.16,0,0,1-.65-1,4,4,0,0,1,0-2.66,3,3,0,0,1,.65-1,2.91,2.91,0,0,1,1-.68,3.38,3.38,0,0,1,1.3-.24,3.42,3.42,0,0,1,1.3.24,2.82,2.82,0,0,1,1,.68,3,3,0,0,1,.65,1A3.79,3.79,0,0,1,161.78,53.11Zm-.89,0a3.25,3.25,0,0,0-.16-1.07,2.33,2.33,0,0,0-.46-.8,2,2,0,0,0-.72-.5,2.57,2.57,0,0,0-1.89,0,2,2,0,0,0-.72.5,2.24,2.24,0,0,0-.46.8,3.21,3.21,0,0,0-.16,1.07,3.15,3.15,0,0,0,.16,1.06,2.33,2.33,0,0,0,.46.8,2,2,0,0,0,.72.5,2.38,2.38,0,0,0,.94.17,2.63,2.63,0,0,0,1-.17,2,2,0,0,0,.72-.5,2.24,2.24,0,0,0,.46-.8A3.38,3.38,0,0,0,160.89,53.11Z"/><path d="M164.65,56.41a1.1,1.1,0,0,1-.83-.3,1.22,1.22,0,0,1-.29-.87V52.45H163a.16.16,0,0,1-.12,0,.17.17,0,0,1-.05-.13V52l.75-.09.18-1.41a.24.24,0,0,1,.06-.11.16.16,0,0,1,.12,0h.4v1.57h1.32v.58h-1.32V55.2a.62.62,0,0,0,.14.43.49.49,0,0,0,.36.14.73.73,0,0,0,.22,0l.16-.07.11-.07.08,0a.14.14,0,0,1,.11.08l.23.38a1.39,1.39,0,0,1-.5.3,2.7,2.7,0,0,1-.58.08Z"/><path d="M167.63,52.39a2.32,2.32,0,0,1,.65-.49,1.8,1.8,0,0,1,.82-.18,1.69,1.69,0,0,1,.66.12,1.3,1.3,0,0,1,.48.35,1.52,1.52,0,0,1,.29.55,2.26,2.26,0,0,1,.1.71v2.9h-.81v-2.9a1.19,1.19,0,0,0-.24-.8.89.89,0,0,0-.72-.29,1.35,1.35,0,0,0-.66.17,2.06,2.06,0,0,0-.57.46v3.36h-.81V49.72h.81Z"/><path d="M175.88,55.7a1.55,1.55,0,0,1-.36.31,2.58,2.58,0,0,1-.44.22,2.72,2.72,0,0,1-.49.13,2.81,2.81,0,0,1-.5,0,2.21,2.21,0,0,1-.87-.16,1.93,1.93,0,0,1-.69-.47,2.29,2.29,0,0,1-.45-.76,3,3,0,0,1-.16-1,2.6,2.6,0,0,1,.15-.89,2.14,2.14,0,0,1,.42-.72,2,2,0,0,1,.67-.48,2.28,2.28,0,0,1,1.65,0,1.62,1.62,0,0,1,.6.4,1.88,1.88,0,0,1,.4.64,2.34,2.34,0,0,1,.14.87.47.47,0,0,1,0,.25.18.18,0,0,1-.15.06h-3a2.68,2.68,0,0,0,.12.75,1.58,1.58,0,0,0,.29.53,1.2,1.2,0,0,0,.45.32,1.54,1.54,0,0,0,.58.11,1.64,1.64,0,0,0,.52-.07l.38-.15.26-.15a.32.32,0,0,1,.18-.07.16.16,0,0,1,.15.08Zm-.65-2.14a1.6,1.6,0,0,0-.08-.51,1.13,1.13,0,0,0-.23-.4,1,1,0,0,0-.37-.26,1.26,1.26,0,0,0-.49-.09,1.21,1.21,0,0,0-.91.34,1.61,1.61,0,0,0-.42.93h2.5Z"/><path d="M178,52.69a2,2,0,0,1,.53-.73,1.14,1.14,0,0,1,.77-.26,1.27,1.27,0,0,1,.28,0,.64.64,0,0,1,.24.1l-.06.6c0,.08-.06.11-.13.11l-.18,0a1.23,1.23,0,0,0-.65,0,.8.8,0,0,0-.3.19,1.11,1.11,0,0,0-.24.31,2.76,2.76,0,0,0-.19.42v2.88h-.81V51.78h.46a.26.26,0,0,1,.18,0A.3.3,0,0,1,178,52Z"/><circle class="cls-5" cx="254" cy="37" r="4"/><circle class="cls-6" cx="254" cy="53.23" r="4"/><path d="M295.35,38.8a.18.18,0,0,1,.13.06l.35.37a2.76,2.76,0,0,1-1,.72,3.31,3.31,0,0,1-1.37.26,3.22,3.22,0,0,1-1.26-.24,2.9,2.9,0,0,1-1-.67,3.09,3.09,0,0,1-.62-1,3.81,3.81,0,0,1-.22-1.34,3.85,3.85,0,0,1,.23-1.34,3,3,0,0,1,.65-1,2.91,2.91,0,0,1,1-.68,3.32,3.32,0,0,1,1.28-.24,3,3,0,0,1,1.21.22,3.23,3.23,0,0,1,.93.6l-.29.4a.23.23,0,0,1-.07.07.21.21,0,0,1-.12,0,.37.37,0,0,1-.2-.09l-.31-.2a2.65,2.65,0,0,0-.47-.2,2.33,2.33,0,0,0-.7-.09,2.42,2.42,0,0,0-.91.17,2,2,0,0,0-.71.5,2.52,2.52,0,0,0-.47.8,3.2,3.2,0,0,0-.17,1.07,3.31,3.31,0,0,0,.17,1.08,2.52,2.52,0,0,0,.47.8,2.08,2.08,0,0,0,.71.5,2.3,2.3,0,0,0,.88.17,4.05,4.05,0,0,0,.52,0,1.94,1.94,0,0,0,.43-.11,2.53,2.53,0,0,0,.37-.18,2.5,2.5,0,0,0,.33-.26.31.31,0,0,1,.16-.07Z"/><path d="M300.72,35.58v4.56h-.48A.21.21,0,0,1,300,40l-.06-.49a2.41,2.41,0,0,1-.67.53,1.81,1.81,0,0,1-.85.2,1.69,1.69,0,0,1-.66-.12,1.3,1.3,0,0,1-.48-.35,1.41,1.41,0,0,1-.29-.54,2.59,2.59,0,0,1-.1-.71V35.58h.8v2.91a1.21,1.21,0,0,0,.24.8.89.89,0,0,0,.72.28,1.35,1.35,0,0,0,.66-.17,1.93,1.93,0,0,0,.57-.47V35.57h.82Z"/><path d="M303.06,36.49a2,2,0,0,1,.53-.73,1.14,1.14,0,0,1,.77-.26,1.27,1.27,0,0,1,.28,0,.64.64,0,0,1,.24.1l-.06.6c0,.08-.06.11-.13.11l-.18,0a1.23,1.23,0,0,0-.65,0,.8.8,0,0,0-.3.19,1.11,1.11,0,0,0-.24.31,2.76,2.76,0,0,0-.19.42v2.88h-.81V35.58h.46a.26.26,0,0,1,.18.05.3.3,0,0,1,.07.17Z"/><path d="M306.7,36.49a2,2,0,0,1,.53-.73,1.14,1.14,0,0,1,.77-.26,1.27,1.27,0,0,1,.28,0,.64.64,0,0,1,.24.1l-.06.6c0,.08-.06.11-.13.11l-.18,0a1.23,1.23,0,0,0-.65,0,.8.8,0,0,0-.3.19,1.11,1.11,0,0,0-.24.31,3.3,3.3,0,0,0-.19.42v2.88H306V35.58h.46a.26.26,0,0,1,.18.05.3.3,0,0,1,.07.17Z"/><path d="M313.2,39.5a1.55,1.55,0,0,1-.36.31,2.58,2.58,0,0,1-.44.22,2.52,2.52,0,0,1-.49.13,2.81,2.81,0,0,1-.5,0,2.28,2.28,0,0,1-.87-.16,1.84,1.84,0,0,1-.69-.47,2.29,2.29,0,0,1-.45-.76,3,3,0,0,1-.16-1,2.6,2.6,0,0,1,.15-.89,2.14,2.14,0,0,1,.42-.72,2,2,0,0,1,.67-.48,2.28,2.28,0,0,1,1.65,0,1.62,1.62,0,0,1,.6.4,1.88,1.88,0,0,1,.4.64,2.34,2.34,0,0,1,.14.87.47.47,0,0,1,0,.25.18.18,0,0,1-.15.06H310a2.68,2.68,0,0,0,.12.75,1.58,1.58,0,0,0,.29.53,1.2,1.2,0,0,0,.45.32,1.54,1.54,0,0,0,.58.11,1.6,1.6,0,0,0,.52-.07l.38-.15a1.5,1.5,0,0,0,.26-.15.32.32,0,0,1,.18-.07.16.16,0,0,1,.15.08Zm-.65-2.14a1.6,1.6,0,0,0-.08-.51,1.13,1.13,0,0,0-.23-.4,1,1,0,0,0-.37-.26,1.3,1.3,0,0,0-.49-.09,1.21,1.21,0,0,0-.91.34,1.61,1.61,0,0,0-.42.93h2.5Z"/><path d="M315.34,36.24a2.27,2.27,0,0,1,.32-.3,1.92,1.92,0,0,1,.35-.23,2.37,2.37,0,0,1,.4-.15,2.14,2.14,0,0,1,.45-.05,1.69,1.69,0,0,1,.66.12A1.3,1.3,0,0,1,318,36a1.52,1.52,0,0,1,.29.55,2.26,2.26,0,0,1,.1.71v2.9h-.81v-2.9a1.19,1.19,0,0,0-.24-.8.89.89,0,0,0-.72-.29,1.35,1.35,0,0,0-.66.17,2.06,2.06,0,0,0-.57.46v3.36h-.81V35.58h.48a.2.2,0,0,1,.21.17Z"/><path d="M321.25,40.21a1.1,1.1,0,0,1-.83-.3,1.22,1.22,0,0,1-.29-.87V36.25h-.55a.16.16,0,0,1-.12,0,.17.17,0,0,1,0-.13v-.32l.75-.09.18-1.41a.24.24,0,0,1,.06-.11.16.16,0,0,1,.12,0h.41v1.57h1.32v.58h-1.32V39a.62.62,0,0,0,.14.43.49.49,0,0,0,.36.14.73.73,0,0,0,.22,0l.16-.07.12-.07.08,0a.14.14,0,0,1,.11.08l.23.38a1.39,1.39,0,0,1-.5.3A3.09,3.09,0,0,1,321.25,40.21Z"/><path d="M328.07,33.69a3.76,3.76,0,0,1,1,.12,2.13,2.13,0,0,1,.71.33,1.25,1.25,0,0,1,.41.53,1.75,1.75,0,0,1,.13.7,1.77,1.77,0,0,1-.07.46,1.36,1.36,0,0,1-.22.41,1.4,1.4,0,0,1-.38.34,2.37,2.37,0,0,1-.53.25,2,2,0,0,1,1.07.51,1.34,1.34,0,0,1,.36,1,1.86,1.86,0,0,1-.15.75,1.57,1.57,0,0,1-.44.58,2.09,2.09,0,0,1-.71.38,3.14,3.14,0,0,1-1,.13H326V33.7h2Zm-1.19.69v2.2H328a2.38,2.38,0,0,0,.64-.08,1.2,1.2,0,0,0,.45-.23.81.81,0,0,0,.26-.35,1.12,1.12,0,0,0,.08-.45,1,1,0,0,0-.34-.83,1.71,1.71,0,0,0-1.06-.26Zm1.4,5.06a2,2,0,0,0,.64-.09,1.23,1.23,0,0,0,.44-.24.94.94,0,0,0,.25-.37,1.4,1.4,0,0,0,.08-.47,1,1,0,0,0-.36-.79,1.69,1.69,0,0,0-1.07-.29h-1.39v2.25Z"/><path d="M333,34.15a.54.54,0,0,1-.05.22.46.46,0,0,1-.13.18.54.54,0,0,1-.4.16.78.78,0,0,1-.22,0,.55.55,0,0,1-.3-.3.51.51,0,0,1,0-.44.55.55,0,0,1,.3-.3.54.54,0,0,1,.22,0,.78.78,0,0,1,.22,0,.57.57,0,0,1,.18.12.83.83,0,0,1,.13.18A.54.54,0,0,1,333,34.15Zm-.17,1.43v4.56H332V35.58Z"/><path d="M335.22,33.51v6.63h-.8V33.51Z"/><path d="M337.62,33.51v6.63h-.8V33.51Z"/><path d="M292.73,49.89a3.68,3.68,0,0,1,1.06.14,2.07,2.07,0,0,1,.75.4,1.47,1.47,0,0,1,.44.63,2.39,2.39,0,0,1,.15.82,2,2,0,0,1-.16.82,1.84,1.84,0,0,1-.46.64,2.09,2.09,0,0,1-.75.42,3.24,3.24,0,0,1-1,.15h-1v2.41h-.87V49.87h1.91Zm0,3.34a1.91,1.91,0,0,0,.66-.1,1.41,1.41,0,0,0,.48-.28,1.1,1.1,0,0,0,.29-.42,1.4,1.4,0,0,0,.1-.54,1.24,1.24,0,0,0-.38-1,1.66,1.66,0,0,0-1.15-.35h-1v2.65Z"/><path d="M296.26,52.42a2.61,2.61,0,0,1,.81-.54,2.5,2.5,0,0,1,1-.18,1.62,1.62,0,0,1,.68.13,1.5,1.5,0,0,1,.5.35,1.59,1.59,0,0,1,.31.54,2.24,2.24,0,0,1,.1.7v2.92h-.36a.3.3,0,0,1-.18,0,.28.28,0,0,1-.1-.15l-.09-.43a4.11,4.11,0,0,1-.35.29,1.65,1.65,0,0,1-.36.22,2.7,2.7,0,0,1-.4.14,2.26,2.26,0,0,1-.47.05,1.63,1.63,0,0,1-.5-.07,1.16,1.16,0,0,1-.41-.22.88.88,0,0,1-.27-.38,1.27,1.27,0,0,1-.1-.54,1,1,0,0,1,.15-.52,1.29,1.29,0,0,1,.48-.44,3.32,3.32,0,0,1,.87-.32,6.65,6.65,0,0,1,1.31-.14v-.36a1.23,1.23,0,0,0-.23-.8.83.83,0,0,0-.67-.27,1.47,1.47,0,0,0-.5.07,2.28,2.28,0,0,0-.35.17l-.25.17a.35.35,0,0,1-.21.07.23.23,0,0,1-.14,0,.36.36,0,0,1-.1-.11Zm2.58,1.87a5.88,5.88,0,0,0-.94.09,3,3,0,0,0-.63.18,1,1,0,0,0-.36.27.55.55,0,0,0-.11.34.75.75,0,0,0,.06.31.49.49,0,0,0,.16.21.55.55,0,0,0,.24.12,1.35,1.35,0,0,0,.29,0,1.51,1.51,0,0,0,.72-.16,2.49,2.49,0,0,0,.3-.19,2.21,2.21,0,0,0,.28-.26v-1Z"/><path d="M303.78,52.53a.18.18,0,0,1-.17.1.33.33,0,0,1-.15-.05l-.21-.11a1.6,1.6,0,0,0-.29-.11,1.56,1.56,0,0,0-.4,0,1.38,1.38,0,0,0-.37,0,.82.82,0,0,0-.28.14.72.72,0,0,0-.18.21.58.58,0,0,0-.06.26.41.41,0,0,0,.1.29.79.79,0,0,0,.27.2,2.74,2.74,0,0,0,.38.15l.43.14.43.16a1.33,1.33,0,0,1,.38.23,1.09,1.09,0,0,1,.27.33,1,1,0,0,1,.1.47,1.58,1.58,0,0,1-.11.58,1.39,1.39,0,0,1-.33.46,1.78,1.78,0,0,1-.54.31,2.1,2.1,0,0,1-.74.11,2.31,2.31,0,0,1-.86-.15,2.15,2.15,0,0,1-.66-.4l.19-.31a.24.24,0,0,1,.08-.09.25.25,0,0,1,.13,0,.32.32,0,0,1,.17.06l.22.14a1.37,1.37,0,0,0,.77.2,1.27,1.27,0,0,0,.41-.06,1,1,0,0,0,.29-.16.51.51,0,0,0,.17-.24.72.72,0,0,0,.06-.29.45.45,0,0,0-.1-.31,1,1,0,0,0-.27-.21,1.88,1.88,0,0,0-.38-.15l-.44-.14-.44-.16a1.43,1.43,0,0,1-.38-.23,1.13,1.13,0,0,1-.27-.34,1.09,1.09,0,0,1-.1-.5,1.25,1.25,0,0,1,.11-.5,1.18,1.18,0,0,1,.32-.42,1.58,1.58,0,0,1,.51-.29,2.08,2.08,0,0,1,.69-.11,2.29,2.29,0,0,1,.81.14,1.72,1.72,0,0,1,.62.39Z"/><path d="M308,52.53a.18.18,0,0,1-.17.1.33.33,0,0,1-.15-.05l-.21-.11a1.6,1.6,0,0,0-.29-.11,1.56,1.56,0,0,0-.4,0,1.38,1.38,0,0,0-.37,0,.82.82,0,0,0-.28.14.72.72,0,0,0-.18.21.58.58,0,0,0-.06.26.41.41,0,0,0,.1.29.79.79,0,0,0,.27.2,2.74,2.74,0,0,0,.38.15l.43.14.43.16a1.33,1.33,0,0,1,.38.23,1.09,1.09,0,0,1,.27.33,1,1,0,0,1,.1.47,1.58,1.58,0,0,1-.11.58,1.39,1.39,0,0,1-.33.46,1.78,1.78,0,0,1-.54.31,2.1,2.1,0,0,1-.74.11,2.31,2.31,0,0,1-.86-.15,2.15,2.15,0,0,1-.66-.4l.19-.31a.24.24,0,0,1,.08-.09.25.25,0,0,1,.13,0,.32.32,0,0,1,.17.06l.22.14a1.37,1.37,0,0,0,.77.2,1.27,1.27,0,0,0,.41-.06,1,1,0,0,0,.29-.16.51.51,0,0,0,.17-.24.72.72,0,0,0,.06-.29.45.45,0,0,0-.1-.31,1,1,0,0,0-.27-.21,1.88,1.88,0,0,0-.38-.15l-.44-.14-.44-.16a1.43,1.43,0,0,1-.38-.23,1.13,1.13,0,0,1-.27-.34,1.09,1.09,0,0,1-.1-.5,1.25,1.25,0,0,1,.11-.5,1.18,1.18,0,0,1,.32-.42,1.58,1.58,0,0,1,.51-.29,2.08,2.08,0,0,1,.69-.11,2.29,2.29,0,0,1,.81.14,1.72,1.72,0,0,1,.62.39Z"/><path d="M313.24,55.7a1.55,1.55,0,0,1-.36.31,2.58,2.58,0,0,1-.44.22,2.72,2.72,0,0,1-.49.13,2.81,2.81,0,0,1-.5,0,2.21,2.21,0,0,1-.87-.16,1.93,1.93,0,0,1-.69-.47,2.29,2.29,0,0,1-.45-.76,3,3,0,0,1-.16-1,2.6,2.6,0,0,1,.15-.89,2.14,2.14,0,0,1,.42-.72,2,2,0,0,1,.67-.48,2.28,2.28,0,0,1,1.65,0,1.62,1.62,0,0,1,.6.4,1.88,1.88,0,0,1,.4.64,2.34,2.34,0,0,1,.14.87.47.47,0,0,1,0,.25.18.18,0,0,1-.15.06h-3.05a2.68,2.68,0,0,0,.12.75,1.58,1.58,0,0,0,.29.53,1.2,1.2,0,0,0,.45.32,1.54,1.54,0,0,0,.58.11,1.64,1.64,0,0,0,.52-.07l.38-.15.26-.15a.32.32,0,0,1,.18-.07.16.16,0,0,1,.15.08Zm-.65-2.14a1.6,1.6,0,0,0-.08-.51,1.13,1.13,0,0,0-.23-.4,1,1,0,0,0-.37-.26,1.26,1.26,0,0,0-.49-.09,1.21,1.21,0,0,0-.91.34,1.61,1.61,0,0,0-.42.93h2.5Z"/><path d="M318.41,49.71v6.63h-.48a.21.21,0,0,1-.22-.17l-.07-.55a2.78,2.78,0,0,1-.67.57,1.77,1.77,0,0,1-1.57.07,1.52,1.52,0,0,1-.54-.44,2.16,2.16,0,0,1-.35-.73,3.81,3.81,0,0,1-.12-1,3.14,3.14,0,0,1,.13-.94,2.23,2.23,0,0,1,.39-.75,1.78,1.78,0,0,1,.62-.5,1.84,1.84,0,0,1,.83-.18,1.74,1.74,0,0,1,.72.14,1.69,1.69,0,0,1,.53.39V49.73h.8Zm-.8,3.15a1.27,1.27,0,0,0-.49-.42,1.37,1.37,0,0,0-.58-.12,1.17,1.17,0,0,0-1,.45,2.12,2.12,0,0,0-.34,1.3,3.28,3.28,0,0,0,.08.76,1.57,1.57,0,0,0,.22.52.86.86,0,0,0,.36.3,1.26,1.26,0,0,0,.49.09,1.31,1.31,0,0,0,.69-.18,1.85,1.85,0,0,0,.54-.51V52.86Z"/><path d="M296.41,69.31a3.73,3.73,0,0,1-.23,1.32,2.92,2.92,0,0,1-.65,1,2.79,2.79,0,0,1-1,.65,3.58,3.58,0,0,1-1.3.23h-2.41V66.08h2.41a3.62,3.62,0,0,1,1.3.23,2.77,2.77,0,0,1,1,.66,3,3,0,0,1,.65,1A3.52,3.52,0,0,1,296.41,69.31Zm-.89,0a3.15,3.15,0,0,0-.16-1.06,2.2,2.2,0,0,0-.46-.79,1.89,1.89,0,0,0-.72-.49,2.59,2.59,0,0,0-.95-.17H291.7v5h1.53a2.63,2.63,0,0,0,.95-.17,2,2,0,0,0,.72-.49,2.2,2.2,0,0,0,.46-.79A3.65,3.65,0,0,0,295.52,69.31Z"/><path d="M301.55,71.9a1.55,1.55,0,0,1-.36.31,2.58,2.58,0,0,1-.44.22,2.72,2.72,0,0,1-.49.13,2.81,2.81,0,0,1-.5,0,2.21,2.21,0,0,1-.87-.16,1.93,1.93,0,0,1-.69-.47,2.29,2.29,0,0,1-.45-.76,3,3,0,0,1-.16-1,2.6,2.6,0,0,1,.15-.89,2.14,2.14,0,0,1,.42-.72,2,2,0,0,1,.67-.48,2.28,2.28,0,0,1,1.65,0,1.62,1.62,0,0,1,.6.4,1.88,1.88,0,0,1,.4.64,2.34,2.34,0,0,1,.14.87.47.47,0,0,1,0,.25.18.18,0,0,1-.15.06h-3.05a2.68,2.68,0,0,0,.12.75,1.58,1.58,0,0,0,.29.53,1.2,1.2,0,0,0,.45.32,1.54,1.54,0,0,0,.58.11,1.64,1.64,0,0,0,.52-.07l.38-.15.26-.15a.32.32,0,0,1,.18-.07.16.16,0,0,1,.15.08Zm-.65-2.14a1.6,1.6,0,0,0-.08-.51,1.13,1.13,0,0,0-.23-.4,1,1,0,0,0-.37-.26,1.26,1.26,0,0,0-.49-.09,1.21,1.21,0,0,0-.91.34,1.61,1.61,0,0,0-.42.93h2.5Z"/><path d="M302.83,68.62a2.61,2.61,0,0,1,.81-.54,2.5,2.5,0,0,1,1-.18,1.62,1.62,0,0,1,.68.13,1.5,1.5,0,0,1,.5.35,1.59,1.59,0,0,1,.31.54,2.24,2.24,0,0,1,.1.7v2.92h-.36a.3.3,0,0,1-.18,0,.28.28,0,0,1-.1-.15l-.09-.43a4.11,4.11,0,0,1-.35.29,1.65,1.65,0,0,1-.36.22,2.7,2.7,0,0,1-.4.14,2.26,2.26,0,0,1-.47.05,1.63,1.63,0,0,1-.5-.07,1.16,1.16,0,0,1-.41-.22.88.88,0,0,1-.27-.38,1.27,1.27,0,0,1-.1-.54,1,1,0,0,1,.15-.52,1.29,1.29,0,0,1,.48-.44,3.32,3.32,0,0,1,.87-.32,6.65,6.65,0,0,1,1.31-.14v-.36a1.23,1.23,0,0,0-.23-.8.83.83,0,0,0-.67-.27,1.47,1.47,0,0,0-.5.07,2.28,2.28,0,0,0-.35.17l-.25.17a.35.35,0,0,1-.21.07.23.23,0,0,1-.14,0,.36.36,0,0,1-.1-.11Zm2.59,1.87a5.88,5.88,0,0,0-.94.09,3,3,0,0,0-.63.18,1,1,0,0,0-.36.27.55.55,0,0,0-.11.34.75.75,0,0,0,.06.31.49.49,0,0,0,.16.21.55.55,0,0,0,.24.12,1.35,1.35,0,0,0,.29,0,1.51,1.51,0,0,0,.72-.16,2.49,2.49,0,0,0,.3-.19,2.21,2.21,0,0,0,.28-.26v-1Z"/><path d="M311.53,65.91v6.63h-.48a.21.21,0,0,1-.22-.17l-.07-.55a2.78,2.78,0,0,1-.67.57,1.77,1.77,0,0,1-1.57.07A1.52,1.52,0,0,1,308,72a2.16,2.16,0,0,1-.35-.73,3.81,3.81,0,0,1-.12-1,3.14,3.14,0,0,1,.13-.94,2.23,2.23,0,0,1,.39-.75,1.78,1.78,0,0,1,.62-.5,1.87,1.87,0,0,1,.83-.18,1.74,1.74,0,0,1,.72.14,1.69,1.69,0,0,1,.53.39V65.93h.8Zm-.8,3.15a1.27,1.27,0,0,0-.49-.42,1.37,1.37,0,0,0-.58-.12,1.17,1.17,0,0,0-1,.45,2.12,2.12,0,0,0-.34,1.3,3.28,3.28,0,0,0,.08.76,1.39,1.39,0,0,0,.23.52.86.86,0,0,0,.36.3,1.26,1.26,0,0,0,.49.09,1.31,1.31,0,0,0,.69-.18,1.85,1.85,0,0,0,.54-.51Z"/><path class="cls-2" d="M389,34.25A2.75,2.75,0,1,1,386.25,37,2.75,2.75,0,0,1,389,34.25M389,33a4,4,0,1,0,4,4A4,4,0,0,0,389,33Z"/><circle class="cls-2" cx="389" cy="53.23" r="4"/><circle class="cls-7" cx="389" cy="69.45" r="4"/></svg>